<svg width="16" height="18" viewBox="0 0 16 18" fill="none" xmlns="http://www.w3.org/2000/svg">
<g id="Group 95">
<path id="Vector" d="M4.56724 17.6083C4.32499 17.5449 4.07151 17.5085 3.84184 17.4141C2.57442 16.8928 1.90295 15.9152 1.81666 14.5709C1.66879 12.2604 1.56632 9.94664 1.44542 7.63426C1.38564 6.49223 1.32811 5.34974 1.26879 4.20726C1.26699 4.16951 1.2616 4.13176 1.25575 4.07423C1.03643 4.07423 0.82474 4.08097 0.613502 4.07243C0.324511 4.0612 0.0970934 3.88412 0.0247333 3.62748C-0.0480763 3.3695 0.0413626 3.08276 0.273275 2.95332C0.398669 2.88321 0.558221 2.84456 0.702491 2.84366C2.03733 2.83557 3.37218 2.83871 4.70747 2.83871C4.77353 2.83871 4.83915 2.83871 4.9241 2.83871C4.9241 2.65489 4.92365 2.4877 4.9241 2.32096C4.92949 1.16724 5.71781 0.381166 6.87243 0.380717C7.63513 0.380268 8.39828 0.379369 9.16099 0.380717C10.2653 0.382964 11.0585 1.16679 11.0747 2.27062C11.0774 2.45444 11.0747 2.63826 11.0747 2.83916C11.1597 2.83916 11.2253 2.83916 11.2913 2.83916C12.6374 2.83916 13.9835 2.83826 15.33 2.83961C15.7916 2.84006 16.0918 3.21085 15.9745 3.62748C15.899 3.8958 15.6631 4.06794 15.3525 4.07423C15.152 4.07827 14.9516 4.07513 14.7386 4.07513C14.7156 4.44816 14.6923 4.80457 14.6725 5.16143C14.5781 6.88009 14.4851 8.59876 14.3902 10.3174C14.312 11.7395 14.2392 13.1619 14.1511 14.5831C14.0657 15.9615 13.1732 17.113 11.9179 17.4851C11.7475 17.5355 11.5718 17.5674 11.3983 17.6078H4.56724V17.6083ZM2.49756 4.08187C2.51869 4.51603 2.53711 4.93491 2.55914 5.35334C2.64363 6.96009 2.72947 8.56685 2.81487 10.1736C2.89307 11.646 2.96363 13.1188 3.05262 14.5907C3.11644 15.6469 3.89892 16.3719 4.95241 16.3737C6.27063 16.3759 7.58839 16.3741 8.9066 16.3741C9.61312 16.3741 10.3201 16.3763 11.0266 16.3737C11.9403 16.3701 12.6239 15.8442 12.8455 14.9539C12.9098 14.6954 12.9273 14.4231 12.943 14.1557C13.0302 12.6446 13.1102 11.1327 13.1934 9.62124C13.2927 7.81853 13.3934 6.01627 13.4927 4.21356C13.495 4.17176 13.4882 4.12906 13.4855 4.08142H2.49756V4.08187ZM9.82886 2.83422C9.82886 2.58298 9.85402 2.33084 9.82211 2.0868C9.78526 1.8041 9.55694 1.63196 9.26975 1.61668C9.16908 1.61129 9.0684 1.61443 8.96728 1.61443C8.24457 1.61443 7.52232 1.61309 6.79962 1.61488C6.47557 1.61578 6.23422 1.76949 6.18568 2.05174C6.14208 2.30568 6.15422 2.5695 6.14164 2.83467H9.82886V2.83422Z" fill="#DADAE5"/>
<path id="Vector_2" d="M6.76721 10.2235C6.76721 11.2329 6.76901 12.2424 6.76631 13.2518C6.76496 13.6662 6.49395 13.9327 6.10833 13.9116C5.81529 13.8954 5.5681 13.6563 5.54338 13.3633C5.54068 13.33 5.54068 13.2959 5.54068 13.2626C5.54068 11.2383 5.53978 9.21405 5.54068 7.18931C5.54068 6.81762 5.78338 6.54886 6.12271 6.53672C6.46788 6.52414 6.74564 6.76639 6.76182 7.11156C6.7744 7.38033 6.76721 7.64954 6.76721 7.91876C6.76721 8.68685 6.76721 9.4554 6.76721 10.2235Z" fill="#DADAE5"/>
<path id="Vector_3" d="M10.4593 10.2181C10.4593 11.2388 10.4611 12.2594 10.4584 13.2801C10.4575 13.6581 10.1874 13.9224 9.82292 13.9125C9.5173 13.904 9.26831 13.6734 9.23865 13.3687C9.2328 13.3075 9.23236 13.2455 9.23236 13.184C9.23236 11.21 9.23146 9.23605 9.2337 7.26211C9.2337 7.15694 9.2382 7.04637 9.26966 6.9475C9.35955 6.66345 9.64764 6.49671 9.94472 6.5412C10.2405 6.5857 10.4571 6.83873 10.458 7.15649C10.4607 8.17717 10.4589 9.19785 10.4589 10.2185L10.4593 10.2181Z" fill="#DADAE5"/>
</g>
</svg>
