<svg width="28" height="28" viewBox="0 0 28 28" fill="none" xmlns="http://www.w3.org/2000/svg">
<path d="M14 28C21.732 28 28 21.732 28 14C28 6.26801 21.732 0 14 0C6.26801 0 0 6.26801 0 14C0 21.732 6.26801 28 14 28Z" fill="#F2F2F2"/>
<path d="M24.2977 23.4722C23.771 21.9394 22.5369 20.5794 20.7761 19.5969C20.1394 19.2431 19.4398 18.9444 18.7009 18.7007C18.4886 18.63 18.2606 18.6693 18.0877 18.8029C16.9322 19.6912 15.5172 20.21 14.0001 20.21C12.483 20.21 11.1388 19.7148 9.999 18.8658C9.8182 18.7322 9.59024 18.7007 9.378 18.7715C6.65032 19.7226 4.5908 21.4834 3.87547 23.6451C3.83617 23.7552 6.273 25.7675 6.273 25.7675L8.67839 26.9309L11.1545 27.6856L13.4027 27.9607L15.9339 27.7642L18.8188 27.1275L21.8923 25.5474C21.8923 25.5474 24.3527 23.5901 24.3056 23.4565L24.2977 23.4722Z" fill="#C2C5CD"/>
<path d="M14.1335 18.3627C16.7688 18.3627 18.905 16.1912 18.905 13.5126C18.905 10.834 16.7688 8.66254 14.1335 8.66254C11.4983 8.66254 9.36206 10.834 9.36206 13.5126C9.36206 16.1912 11.4983 18.3627 14.1335 18.3627Z" fill="#C2C5CD"/>
</svg>
