<svg width="20" height="20" viewBox="0 0 20 20" fill="none" xmlns="http://www.w3.org/2000/svg">
<path d="M15.253 15.7599C15.1197 15.7341 14.9877 15.7019 14.8577 15.6633C14.5884 15.5744 14.3272 15.4666 14.0556 15.3767C13.9205 15.3275 13.7757 15.3085 13.632 15.3209C13.4883 15.3334 13.3492 15.377 13.2252 15.4486C13.1013 15.5202 12.9954 15.6178 12.9157 15.7344C12.8359 15.851 12.7841 15.9835 12.7643 16.1221C12.7116 16.4187 12.6669 16.7186 12.6039 17.0108C12.5479 17.2834 12.3978 17.5293 12.1782 17.7081C11.9586 17.8868 11.6828 17.9876 11.3962 17.9939C10.4673 18.002 9.53842 18.002 8.60955 17.9939C8.30001 17.9874 8.00333 17.8726 7.77423 17.6707C7.54512 17.4688 7.39903 17.1934 7.36289 16.8952C7.31935 16.6386 7.27696 16.382 7.23112 16.1254C7.21126 15.9856 7.15898 15.852 7.07823 15.7346C6.99748 15.6172 6.89034 15.519 6.76487 15.4475C6.63939 15.376 6.49884 15.333 6.35375 15.3217C6.20867 15.3104 6.06283 15.3311 5.92718 15.3822C5.66479 15.4722 5.40583 15.5722 5.14344 15.6655C4.84757 15.7859 4.51587 15.7943 4.21394 15.6889C3.91202 15.5836 3.66186 15.3723 3.51294 15.0967C3.07141 14.3621 2.63333 13.6278 2.19868 12.8938C2.02815 12.6335 1.96417 12.3207 2.01929 12.0169C2.07441 11.7131 2.24465 11.4403 2.49659 11.252C2.71315 11.0742 2.93773 10.9031 3.15315 10.7243C3.26584 10.6367 3.35669 10.5256 3.41889 10.3992C3.4811 10.2729 3.51307 10.1345 3.5124 9.9945C3.51174 9.85448 3.47847 9.71642 3.41508 9.59061C3.35168 9.4648 3.25979 9.35449 3.14627 9.26793C2.92857 9.08575 2.70055 8.91245 2.47941 8.72915C2.23719 8.54217 2.07373 8.27588 2.01972 7.98031C1.96571 7.68473 2.02486 7.38021 2.18608 7.12393C2.62607 6.37224 3.07103 5.6261 3.52096 4.88551C3.67127 4.61804 3.91788 4.41358 4.21375 4.31114C4.50962 4.20869 4.83403 4.21543 5.12511 4.33007C5.38177 4.42116 5.63614 4.51781 5.89281 4.60779C6.03077 4.66437 6.18045 4.68894 6.32994 4.67956C6.47943 4.67018 6.62459 4.62709 6.75388 4.55374C6.88317 4.48039 6.99302 4.37879 7.07468 4.25703C7.15633 4.13528 7.20755 3.99672 7.22425 3.85239C7.27581 3.56578 7.31935 3.27696 7.38008 2.99257C7.43551 2.71487 7.58859 2.46441 7.81321 2.28391C8.03784 2.10341 8.32009 2.00405 8.61184 2.00278C9.53537 1.99907 10.4589 1.99907 11.3824 2.00278C11.6962 2.0067 11.9977 2.12186 12.2299 2.32653C12.4621 2.53119 12.609 2.81118 12.6428 3.11366C12.6852 3.37027 12.7288 3.62688 12.7746 3.8835C12.7949 4.02062 12.8465 4.15162 12.9257 4.26694C13.0049 4.38226 13.1096 4.479 13.2322 4.5501C13.3549 4.6212 13.4923 4.66487 13.6346 4.67793C13.7768 4.69098 13.9203 4.67309 14.0545 4.62556C14.3283 4.53558 14.5965 4.42894 14.868 4.33229C15.1621 4.21458 15.4909 4.20729 15.7902 4.31182C16.0895 4.41636 16.338 4.62524 16.4871 4.89773C16.9301 5.63461 17.3697 6.37335 17.8059 7.11393C17.973 7.37298 18.0353 7.68285 17.9807 7.98378C17.9261 8.2847 17.7585 8.55538 17.5103 8.74359C17.2972 8.91911 17.0783 9.08575 16.8652 9.26126C16.7467 9.34817 16.6507 9.4605 16.5845 9.58944C16.5184 9.71839 16.484 9.86044 16.484 10.0044C16.484 10.1484 16.5184 10.2905 16.5845 10.4194C16.6507 10.5484 16.7467 10.6607 16.8652 10.7476C17.0829 10.9265 17.3063 11.0964 17.5229 11.2753C17.7607 11.4619 17.9209 11.7255 17.9742 12.0176C18.0274 12.3097 17.9701 12.6106 17.8128 12.865C17.3682 13.6248 16.9175 14.3813 16.4607 15.1345C16.3395 15.3377 16.1621 15.5041 15.9484 15.6146C15.7348 15.7251 15.4935 15.7755 15.2519 15.7599M11.3503 16.7397C11.4042 16.4398 11.4535 16.1432 11.5096 15.851C11.6102 15.3097 11.9207 14.8263 12.3773 14.4999C12.8339 14.1735 13.402 14.0289 13.9651 14.0958C14.3474 14.1713 14.722 14.2794 15.0846 14.4191C15.3493 14.5035 15.3458 14.5135 15.4891 14.2736L16.7013 12.2384L16.0654 11.7296C15.7935 11.5255 15.5734 11.2638 15.422 10.9645C15.2706 10.6651 15.1918 10.3362 15.1918 10.0028C15.1918 9.66939 15.2706 9.34042 15.422 9.0411C15.5734 8.74177 15.7935 8.48002 16.0654 8.27591L16.7036 7.76491C16.2659 7.02951 15.8294 6.30077 15.3985 5.56981C15.3538 5.49427 15.3092 5.50427 15.2416 5.52982C14.9711 5.6298 14.7019 5.73311 14.4269 5.82087C14.1212 5.91888 13.7973 5.95202 13.4773 5.91804C13.1572 5.88406 12.8484 5.78376 12.5719 5.62393C12.2953 5.4641 12.0574 5.24849 11.8743 4.99171C11.6912 4.73493 11.5673 4.44298 11.5108 4.13567C11.4546 3.84462 11.4065 3.55245 11.3538 3.25696H8.64621C8.60382 3.50469 8.55684 3.74908 8.51903 3.99458C8.4791 4.32992 8.35975 4.65176 8.17029 4.93497C7.98082 5.21818 7.72639 5.45508 7.42685 5.62717C7.12732 5.79926 6.7908 5.90187 6.44359 5.927C6.09638 5.95212 5.74787 5.89907 5.42531 5.77199L4.65876 5.49538C4.63584 5.5276 4.6198 5.54759 4.60605 5.56981L3.29408 7.76047L3.94262 8.27925C4.21054 8.48385 4.42711 8.74471 4.57601 9.04218C4.72491 9.33966 4.80227 9.66601 4.80227 9.99667C4.80227 10.3273 4.72491 10.6537 4.57601 10.9512C4.42711 11.2486 4.21054 11.5095 3.94262 11.7141L3.29179 12.234L4.64615 14.5068C4.94177 14.3958 5.21906 14.298 5.49406 14.2013C5.80245 14.0906 6.13215 14.0467 6.45991 14.0729C6.78768 14.0991 7.10552 14.1947 7.39103 14.353C7.67653 14.5113 7.92274 14.7283 8.1123 14.9889C8.30185 15.2494 8.43013 15.5471 8.48809 15.861C8.54423 16.1521 8.59236 16.4442 8.64507 16.7397H11.3503Z" fill="#C2C5CD"/>
<path d="M15.253 15.7599C15.1197 15.7341 14.9877 15.7019 14.8577 15.6633C14.5884 15.5744 14.3272 15.4666 14.0556 15.3767C13.9205 15.3275 13.7757 15.3085 13.632 15.3209C13.4883 15.3334 13.3492 15.377 13.2252 15.4486C13.1013 15.5202 12.9954 15.6178 12.9157 15.7344C12.8359 15.851 12.7841 15.9835 12.7643 16.1221C12.7116 16.4187 12.6669 16.7186 12.6039 17.0108C12.5479 17.2834 12.3978 17.5293 12.1782 17.7081C11.9586 17.8868 11.6828 17.9876 11.3962 17.9939C10.4673 18.002 9.53842 18.002 8.60955 17.9939C8.30001 17.9874 8.00333 17.8726 7.77423 17.6707C7.54512 17.4688 7.39903 17.1934 7.36289 16.8952C7.31935 16.6386 7.27696 16.382 7.23112 16.1254C7.21126 15.9856 7.15898 15.852 7.07823 15.7346C6.99748 15.6172 6.89034 15.519 6.76487 15.4475C6.63939 15.376 6.49884 15.333 6.35375 15.3217C6.20867 15.3104 6.06283 15.3311 5.92718 15.3822C5.66479 15.4722 5.40583 15.5722 5.14344 15.6655C4.84757 15.7859 4.51587 15.7943 4.21394 15.6889C3.91202 15.5836 3.66186 15.3723 3.51294 15.0967C3.07141 14.3621 2.63333 13.6278 2.19868 12.8938C2.02815 12.6335 1.96417 12.3207 2.01929 12.0169C2.07441 11.7131 2.24465 11.4403 2.49659 11.252C2.71315 11.0742 2.93773 10.9031 3.15315 10.7243C3.26584 10.6367 3.35669 10.5256 3.41889 10.3992C3.4811 10.2729 3.51307 10.1345 3.5124 9.9945C3.51174 9.85448 3.47847 9.71642 3.41508 9.59061C3.35168 9.4648 3.25979 9.35449 3.14627 9.26793C2.92857 9.08575 2.70055 8.91245 2.47941 8.72915C2.23719 8.54217 2.07373 8.27588 2.01972 7.98031C1.96571 7.68473 2.02486 7.38021 2.18608 7.12393C2.62607 6.37224 3.07103 5.6261 3.52096 4.88551C3.67127 4.61804 3.91788 4.41358 4.21375 4.31114C4.50962 4.2087 4.83403 4.21543 5.12511 4.33007C5.38177 4.42116 5.63614 4.51781 5.89281 4.60779C6.03077 4.66437 6.18045 4.68894 6.32994 4.67956C6.47943 4.67018 6.62459 4.62709 6.75388 4.55374C6.88317 4.48039 6.99302 4.37879 7.07468 4.25703C7.15633 4.13528 7.20755 3.99672 7.22425 3.85239C7.27581 3.56578 7.31935 3.27696 7.38008 2.99257C7.43551 2.71487 7.58859 2.46441 7.81321 2.28391C8.03784 2.10341 8.32009 2.00405 8.61184 2.00278C9.53537 1.99907 10.4589 1.99907 11.3824 2.00278C11.6962 2.0067 11.9977 2.12186 12.2299 2.32653C12.4621 2.53119 12.609 2.81118 12.6428 3.11366C12.6852 3.37027 12.7288 3.62688 12.7746 3.8835C12.7949 4.02062 12.8465 4.15162 12.9257 4.26694C13.0049 4.38226 13.1096 4.479 13.2322 4.5501C13.3549 4.6212 13.4923 4.66487 13.6346 4.67793C13.7768 4.69098 13.9203 4.67309 14.0545 4.62556C14.3283 4.53558 14.5965 4.42894 14.868 4.33229C15.1621 4.21458 15.4909 4.20729 15.7902 4.31182C16.0895 4.41636 16.338 4.62524 16.4871 4.89773C16.9301 5.63461 17.3697 6.37335 17.8059 7.11393C17.973 7.37298 18.0353 7.68285 17.9807 7.98378C17.9261 8.2847 17.7585 8.55538 17.5103 8.74359C17.2972 8.91911 17.0783 9.08575 16.8652 9.26126C16.7467 9.34817 16.6507 9.4605 16.5845 9.58944C16.5184 9.71839 16.484 9.86044 16.484 10.0044C16.484 10.1485 16.5184 10.2905 16.5845 10.4194C16.6507 10.5484 16.7467 10.6607 16.8652 10.7476C17.0829 10.9265 17.3063 11.0964 17.5229 11.2753C17.7607 11.4619 17.9209 11.7255 17.9742 12.0176C18.0274 12.3097 17.9701 12.6106 17.8128 12.865C17.3682 13.6248 16.9175 14.3813 16.4607 15.1345C16.3395 15.3377 16.1621 15.5041 15.9484 15.6146C15.7348 15.7251 15.4935 15.7755 15.2519 15.7599M11.3503 16.7397C11.4042 16.4398 11.4535 16.1432 11.5096 15.851C11.6102 15.3097 11.9207 14.8263 12.3773 14.4999C12.8339 14.1735 13.402 14.0289 13.9651 14.0958C14.3474 14.1713 14.722 14.2794 15.0846 14.4191C15.3493 14.5035 15.3458 14.5135 15.4891 14.2736L16.7013 12.2384L16.0654 11.7296C15.7935 11.5255 15.5734 11.2638 15.422 10.9645C15.2706 10.6651 15.1918 10.3362 15.1918 10.0028C15.1918 9.66939 15.2706 9.34042 15.422 9.0411C15.5734 8.74177 15.7935 8.48002 16.0654 8.27591L16.7036 7.76491C16.2659 7.02951 15.8294 6.30077 15.3985 5.56981C15.3538 5.49427 15.3092 5.50427 15.2416 5.52982C14.9711 5.6298 14.7019 5.73311 14.4269 5.82087C14.1212 5.91888 13.7973 5.95202 13.4773 5.91804C13.1572 5.88406 12.8484 5.78376 12.5719 5.62393C12.2953 5.4641 12.0574 5.24849 11.8743 4.99171C11.6912 4.73493 11.5673 4.44298 11.5108 4.13567C11.4546 3.84462 11.4065 3.55245 11.3538 3.25696H8.64621C8.60382 3.50469 8.55684 3.74908 8.51903 3.99458C8.4791 4.32992 8.35975 4.65176 8.17029 4.93497C7.98082 5.21818 7.72639 5.45508 7.42685 5.62717C7.12732 5.79926 6.7908 5.90187 6.44359 5.927C6.09638 5.95212 5.74787 5.89907 5.42531 5.77199L4.65876 5.49538C4.63584 5.5276 4.6198 5.54759 4.60605 5.56981L3.29408 7.76047L3.94262 8.27925C4.21054 8.48385 4.42711 8.74471 4.57601 9.04218C4.72491 9.33966 4.80227 9.66601 4.80227 9.99667C4.80227 10.3273 4.72491 10.6537 4.57601 10.9512C4.42711 11.2486 4.21054 11.5095 3.94262 11.7141L3.29179 12.234L4.64615 14.5068C4.94177 14.3958 5.21906 14.298 5.49406 14.2013C5.80245 14.0906 6.13215 14.0467 6.45991 14.0729C6.78768 14.0991 7.10552 14.1947 7.39103 14.353C7.67653 14.5113 7.92274 14.7283 8.1123 14.9889C8.30185 15.2494 8.43013 15.5471 8.48809 15.861C8.54423 16.1521 8.59236 16.4442 8.64507 16.7397H11.3503Z" stroke="#C2C5CD" stroke-width="0.2"/>
<path d="M10.0854 13.0804C9.45641 13.0968 8.83653 12.9321 8.30414 12.607C7.77175 12.2819 7.35077 11.811 7.09446 11.2539C6.83816 10.6968 6.75804 10.0785 6.86424 9.4772C6.97043 8.87594 7.25817 8.31872 7.69106 7.87603C8.12395 7.43333 8.68254 7.12506 9.29617 6.99019C9.9098 6.85533 10.5509 6.89993 11.1384 7.11836C11.7259 7.3368 12.2333 7.71925 12.5966 8.21734C12.9598 8.71542 13.1626 9.30676 13.1791 9.91657C13.1991 10.7332 12.885 11.5243 12.3053 12.1171C11.7257 12.7099 10.9276 13.0562 10.0854 13.0804ZM9.99257 8.1636C9.61876 8.1647 9.25366 8.27314 8.94337 8.47524C8.63308 8.67734 8.3915 8.96403 8.24913 9.29913C8.10676 9.63423 8.06998 10.0027 8.14343 10.358C8.21689 10.7134 8.39728 11.0397 8.66185 11.2957C8.92641 11.5517 9.26328 11.726 9.62994 11.7966C9.99659 11.8672 10.3766 11.8309 10.722 11.6922C11.0674 11.5536 11.3626 11.3188 11.5705 11.0176C11.7784 10.7165 11.8896 10.3623 11.8901 9.99989C11.887 9.5132 11.686 9.04732 11.3308 8.70349C10.9755 8.35966 10.4946 8.16564 9.99257 8.1636Z" fill="#C2C5CD" stroke="#C2C5CD" stroke-width="0.2"/>
</svg>
