<svg width="20" height="20" viewBox="0 0 20 20" fill="none" xmlns="http://www.w3.org/2000/svg">
<path d="M6.94308 6.70302C8.05699 5.37578 9.16929 4.04792 10.2844 2.72174C11.3115 1.50224 12.9448 1.18618 14.3545 1.9308C15.9827 2.79076 16.5492 4.94874 15.5511 6.4958C15.4707 6.62031 15.3873 6.74508 15.292 6.85856C13.3492 9.17689 11.4055 11.4953 9.45808 13.8098C8.74942 14.6525 7.54732 14.7722 6.7182 14.0955C5.87204 13.4044 5.75113 12.1751 6.45948 11.3243C7.51606 10.0553 8.58138 8.79352 9.64295 7.52864C10.2346 6.82367 10.8259 6.11834 11.4179 5.41372C11.6946 5.08409 12.0866 5.03057 12.381 5.27832C12.6737 5.52469 12.6868 5.92182 12.4106 6.25179C10.7752 8.20121 9.14027 10.151 7.50198 12.098C7.34918 12.28 7.26255 12.4744 7.31293 12.7115C7.36468 12.9554 7.5102 13.1265 7.74965 13.1999C7.99584 13.2754 8.2172 13.2168 8.40521 13.0409C8.43477 13.0133 8.45927 12.9807 8.48543 12.9496C10.4129 10.653 12.3412 8.35787 14.2666 6.05956C14.8474 5.3667 14.9049 4.43377 14.4238 3.70622C13.7145 2.63345 12.1683 2.52244 11.3317 3.50073C10.342 4.65803 9.37096 5.83103 8.39164 6.99705C7.14308 8.48473 5.89327 9.97136 4.64637 11.4604C3.62379 12.6822 3.59705 14.3509 4.57575 15.6066C5.7076 17.0588 7.92614 17.2381 9.28226 15.9895C9.42236 15.8605 9.55048 15.7222 9.67224 15.5772C11.569 13.3172 13.4661 11.0568 15.3628 8.79678C15.4364 8.70907 15.5063 8.61899 15.6097 8.55911C15.8733 8.40627 16.2008 8.4466 16.4112 8.66356C16.622 8.88087 16.651 9.23463 16.4769 9.48596C16.4461 9.53025 16.4095 9.57042 16.3747 9.61199C14.4605 11.8928 12.5475 14.1746 10.6321 16.4543C9.20962 18.1467 6.95052 18.6007 4.98445 17.5946C2.73817 16.4454 1.88219 13.5131 3.15554 11.335C3.30938 11.0723 3.48339 10.8244 3.6798 10.5904C4.76879 9.29541 5.85535 7.99907 6.94308 6.70302Z" fill="#010101"/>
</svg>
