<svg width="610" height="86" viewBox="0 0 610 86" fill="currentColor" xmlns="http://www.w3.org/2000/svg">
<g clip-path="url(#clip0_803_20306)">
<path d="M518.08 3.91992H502.41V81.1199H518.08V3.91992Z" fill="currentColor"/>
<path d="M606.81 81.1199V66.8999H563.201L609.23 3.91992H539.341V18.1399H579.76L533.73 81.1199H606.81Z" fill="currentColor"/>
<path d="M477.19 41.1302C480.42 37.2002 482.36 32.1702 482.36 26.6802C482.36 14.1102 472.18 3.93016 459.62 3.91016H459.59H410.1V81.1002H449.9L462.32 81.1102C474.89 81.1102 485.09 70.9202 485.09 58.3402C485.09 51.4502 482.02 45.3002 477.19 41.1202V41.1302ZM424.37 17.5702H460.5C465.09 17.5702 468.44 21.5102 468.44 26.1002C468.44 30.6902 465.1 34.6302 460.5 34.6302H424.37V17.5702ZM462.12 67.4602H424.37V48.0802H462.12C467.36 48.0802 471.16 52.5402 471.16 57.7702C471.16 63.0002 467.35 67.4602 462.12 67.4602Z" fill="currentColor"/>
<path d="M269.64 81.12L312.3 1.74L354.97 81.12H336.98L312.31 32.22L287.64 81.12H269.65H269.64ZM150.35 42.52C150.35 26.56 138.31 13.79 122.92 13.79C107.53 13.79 95.49 26.56 95.49 42.52C95.49 58.48 107.54 71.69 122.92 71.69C138.3 71.69 150.35 58.48 150.35 42.52ZM165.73 42.52C165.73 65.88 146.28 85.04 122.92 85.04C99.56 85.04 80.11 65.88 80.11 42.52C80.11 19.16 99.55 0 122.92 0C146.29 0 165.73 19.16 165.73 42.52ZM15.67 42.23L54.71 3.92H74.45L35.27 42.23L77.21 81.12H56.89L15.67 42.23ZM0 3.92H15.67V81.12H0V3.92Z" fill="currentColor"/>
<path d="M241.77 81.1199V18.1399H195.92V81.1199H180.24V3.91992H257.45V81.1199H241.77Z" fill="currentColor"/>
</g>
<defs>
<clipPath id="clip0_803_20306">
<rect width="609.23" height="85.04" fill="white"/>
</clipPath>
</defs>
</svg>
