<svg width="20" height="20" viewBox="0 0 20 20" fill="none" xmlns="http://www.w3.org/2000/svg">
<path d="M8.12196 5.64345V5.63636V5.62852V5.62067V5.61283V5.60498V5.59714V5.5893V5.58145V5.57361V5.56577V5.55792V5.55008V5.54223V5.53439V5.52655V5.5187V5.51086V5.50302V5.49517V5.48733V5.47948V5.47164V5.4638V5.45595V5.44811V5.44027V5.43242V5.42458V5.41673V5.40889V5.40105V5.3932V5.38536V5.37752V5.36967V5.36183V5.35398V5.34614V5.3383V5.33045V5.32261V5.31477V5.30692V5.29908V5.29123V5.28339V5.27555V5.2677V5.25986V5.25202V5.24417V5.23633V5.22848V5.22064V5.2128V5.20495V5.19711V5.18927V5.18142V5.17358V5.16574V5.15789V5.15005V5.1422V5.13436V5.12652V5.11867V5.11083V5.10299V5.09514V5.0873V5.07945V5.07161V5.06377V5.05592V5.04808V5.04024V5.03239V5.02455V5.0167V5.00886V5.00102V4.99317V4.98533V4.97749V4.96964V4.9618V4.95395V4.94611V4.93827V4.93042V4.92258V4.91474V4.90689V4.89905V4.8912V4.88336V4.87552V4.86767V4.85983V4.85199V4.84414V4.8363V4.82845V4.82061V4.81277V4.80492V4.79708V4.78924V4.78139V4.77355V4.7657V4.75786V4.75002V4.74217V4.73433V4.72649V4.71864V4.7108V4.70295V4.69511V4.68727V4.67942V4.67158V4.66374V4.65589V4.64805V4.6402V4.63236V4.62452V4.61667V4.60883V4.60099V4.59314V4.5853V4.57745V4.56961V4.56177V4.55392V4.54608V4.53824V4.53039V4.52255V4.5147V4.50686V4.49902V4.49117V4.48333V4.47549V4.46764V4.4598V4.45196V4.44411V4.43627V4.42842V4.42058V4.41274V4.40489V4.39705V4.38921V4.38136V4.37352V4.36567V4.35783V4.34999V4.34214V4.3343V4.32646V4.31861V4.31077V4.30292V4.29508V4.28724V4.27939V4.27155V4.26371V4.25586V4.24802V4.24017V4.23233V4.22449V4.21664V4.2088V4.20096V4.19311V4.18527V4.17742V4.16958V4.16174V4.15389V4.14605V4.13821V4.13036V4.12252V4.11467V4.10683V4.09899V4.09114V4.0833V4.07546V4.06761V4.05977V4.05192V4.04408V4.03624V4.02839V4.02055V4.01271V4.00486V3.99702V3.98917V3.98133V3.97349V3.96564V3.9578V3.94996V3.94211V3.93427V3.92642V3.91858V3.91074V3.90289V3.89505V3.88721V3.87936V3.87152V3.86367V3.85583V3.84799V3.84014V3.8323V3.82446V3.81661V3.80877V3.80093V3.79308V3.78524V3.77739V3.76955V3.76171V3.75386V3.74602V3.73818V3.73033V3.72249V3.71464V3.7068V3.69896V3.69111V3.68327V3.67543V3.66758V3.65974V3.65189V3.64405V3.63621V3.62836V3.62052V3.61268V3.60483V3.59699V3.58914V3.5813V3.57346V3.56561V3.55777V3.54993V3.54208V3.53424V3.52639V3.51855V3.51071V3.50286V3.49502V3.48718V3.47933V3.47149V3.46364V3.4558V3.44796V3.44011V3.43227V3.42443V3.41658V3.40874V3.40089V3.39305V3.38521V3.37736V3.36952V3.36168V3.35383V3.34599V3.33814V3.3303V3.32246V3.31461V3.30677V3.29893V3.29108V3.28324V3.27539V3.26755V3.25971V3.25186V3.24402V3.23618V3.22833V3.22049V3.21264V3.2048V3.19696V3.18911V3.18127V3.17343V3.16558V3.15774V3.1499V3.14205V3.13421V3.12636V3.11852V3.11068V3.10283V3.09499V3.08715V3.0793V3.07146V3.06361V3.05577V3.04793V3.04008V3.03224V3.0244V3.01655V3.00871V3.00086V2.99302V2.98518V2.97733V2.96949V2.96165V2.9538V2.94596V2.93811V2.93027V2.92243V2.91458V2.90674V2.8989V2.89105V2.88321V2.87536V2.86752V2.85968V2.85183V2.84399V2.83615V2.8283V2.82046V2.81261V2.80477V2.79693V2.78908V2.78124V2.7734V2.76964C6.37698 3.12406 5.01298 4.05664 3.983 5.51509L8.12196 5.64345ZM8.12196 5.64345L8.10857 5.65014V6.11368V6.12132V6.12897V6.13662V6.14427V6.15192V6.15956V6.16721V6.17486V6.18251V6.19016V6.19781V6.20546V6.21311V6.22076V6.22841V6.23606V6.24371V6.25136V6.25901V6.26666V6.27431V6.28196V6.28961V6.29726V6.30491V6.31257V6.32022V6.32787V6.33552V6.34317V6.35082V6.35848V6.36613V6.37378V6.38143V6.38909V6.39674V6.40439V6.41205V6.4197V6.42735V6.43501V6.44266V6.45031V6.45797V6.46562V6.47327V6.48093V6.48858V6.49624V6.50389V6.51155V6.5192V6.52686V6.53451V6.54217V6.54982V6.55748V6.56513V6.57279V6.58045V6.5881V6.59576V6.60341V6.61107V6.61873V6.62638V6.63404V6.6417V6.64935V6.65701V6.66467V6.67232V6.67998V6.68764V6.6953V6.70295V6.71061V6.71827V6.72593V6.73359V6.74124V6.7489V6.75656V6.76422V6.77188V6.77954V6.78719V6.79485V6.80251V6.81017V6.81783V6.82549V6.83315V6.84081V6.84847V6.85613V6.86379V6.87145V6.87911V6.88677V6.89443V6.90209V6.90975V6.91741V6.92507V6.93273V6.94039V6.94805V6.95571V6.96337V6.97103V6.97869V6.98636V6.99402V7.00168V7.00934V7.017V7.02466V7.03232V7.03999V7.04765V7.05531V7.06297V7.07063V7.0783V7.08596V7.09362V7.10128V7.10895V7.11661V7.12427V7.13193V7.1396V7.14726V7.15492V7.16258V7.17025V7.17791V7.18557V7.19324V7.2009V7.20856V7.21623V7.22389V7.23155V7.23922V7.24688V7.25455V7.26221V7.26987V7.27754V7.2852V7.29287V7.30053V7.30819V7.31586V7.32352V7.33119V7.33885V7.34652V7.35418V7.36185V7.36951V7.37717V7.38484V7.3925V7.40017V7.40783V7.4155V7.42316V7.43083V7.43849V7.44616V7.45383V7.46149V7.46916V7.47682V7.48449V7.49215V7.49982V7.50748V7.51515V7.52281V7.53048V7.53815V7.54581V7.55348V7.56114V7.56881V7.57648V7.58414V7.59181V7.59947V7.60714V7.61481V7.62247V7.63014V7.6378V7.64547V7.65314V7.6608V7.66847V7.67614V7.6838V7.69147V7.69914V7.7068V7.71447V7.72214V7.7298V7.73747V7.74514V7.7528V7.76047V7.76814V7.7758V7.78347V7.79114V7.7988V7.80647V7.81414V7.8218V7.82947V7.83714V7.8448V7.85247V7.86014V7.86781V7.87547V7.88314V7.89081V7.89847V7.90614V7.91381V7.92148V7.92914V7.93681V7.94448V7.95214V7.95981V7.96748V7.97515V7.98281V7.99048V7.99815V8.00581V8.01348V8.02115V8.02882V8.03648V8.04415V8.05182V8.05949V8.06715V8.07482V8.08249V8.09015V8.09782V8.10549V8.11316V8.12082V8.12849V8.13616V8.14383V8.15149V8.15916V8.16683V8.17449V8.18216V8.18983V8.1975V8.20516V8.21283V8.2205V8.22816V8.23583V8.2435V8.25117V8.25883V8.2665V8.27417V8.28183V8.2895V8.29717V8.30483V8.3125V8.32017V8.32784V8.3355V8.34317V8.35084V8.3585V8.36617V8.37384V8.3815V8.38917V8.39684V8.4045V8.41217V8.41984V8.4275V8.43517V8.44284V8.4505V8.45817V8.46584V8.4735V8.48117V8.48884V8.4965V8.50417V8.51183V8.5195V8.52717V8.53483V8.5425V8.55017V8.55783V8.5655V8.57316V8.58083V8.5885V8.59616V8.60383V8.61149V8.61916V8.62682V8.63449V8.64216V8.64982V8.65749V8.66515V8.67282V8.68048V8.68815V8.69581V8.70348V8.71114V8.71881V8.72647V8.73414V8.74181V8.74947V8.75713V8.7648V8.77246V8.78013V8.78779V8.79546V8.80312V8.81079V8.81845V8.82612V8.83378V8.84145V8.84911V8.85677V8.86444V8.8721V8.87977V8.88743V8.89509V8.90276V8.91042V8.91808V8.92575V8.93341V8.94108V8.94874V8.9564V8.96407V8.97173V8.97939V8.98705V8.99472V9.00238V9.01004V9.01771V9.02537V9.03303V9.04069V9.04836V9.05602V9.06368V9.07134V9.07901V9.08667V9.09433V9.10199V9.10965V9.11732V9.12498V9.13264V9.1403V9.14796V9.15562V9.16328V9.17095V9.17861V9.18627V9.19393V9.20159V9.20925V9.21691V9.22457V9.23223V9.23989V9.24755V9.25521V9.26287V9.27053V9.27819V9.28585V9.29351V9.30117V9.30883V9.31649V9.32415V9.33181V9.33947V9.34713V9.35479V9.36245V9.3701V9.37776V9.38542V9.39308V9.40074V9.4084V9.41605V9.42371V9.43137V9.43903V9.44669V9.45434V9.462V9.46966V9.47732V9.48497V9.49263V9.50029V9.50794V9.5156V9.52326V9.53091V9.53857V9.54623V9.55388V9.56154V9.56919V9.57685V9.58451V9.59216V9.59982V9.60747V9.61513V9.62278V9.63044V9.63809V9.64575V9.6534V9.66106V9.66871V9.67636V9.68402V9.69167V9.69933V9.70698V9.71463V9.72229V9.72994V9.73759V9.74525V9.7529V9.76055V9.76821V9.77586V9.78351V9.79116V9.79882V9.80647V9.81412V9.82177V9.82942V9.83707V9.84473V9.85238V9.86003V9.86768V9.87533V9.88298V9.89063V9.89828V9.90593V9.91358V9.92123V9.92888V9.93653V9.94418V9.95183V9.95948V9.96713V9.97478V9.98243V9.99007V9.99772V10.0054V10.013V10.0207V10.0283V10.036C8.10857 10.4187 8.22958 10.7434 8.44886 11.0319L8.44881 11.032L8.45505 11.04C9.54273 12.4317 10.6271 13.8254 11.7128 15.2209C12.1947 15.8402 12.6768 16.4598 13.1595 17.0797C12.4414 17.4902 11.6402 17.6898 10.7492 17.7338L10.7456 17.734C9.35918 17.8093 8.06859 17.6256 6.87327 17.04C4.53259 15.888 3.09961 14.067 2.63552 11.5155C2.24372 9.34143 2.70404 7.32908 3.9829 5.51524L8.12196 5.64345ZM8.12196 2.09099V2.093C8.12186 2.08958 8.12196 2.08877 8.12196 2.09099ZM13.6577 16.7506C13.66 16.7487 13.6612 16.7478 13.6611 16.7479C13.661 16.7481 13.6599 16.7489 13.6577 16.7506Z" stroke="white" stroke-width="1.5"/>
<path d="M10.96 2.31729V2.31758V2.32509V2.33259V2.34009V2.3476V2.3551V2.3626V2.37011V2.37761V2.38511V2.39262V2.40012V2.40762V2.41513V2.42263V2.43014V2.43764V2.44514V2.45265V2.46015V2.46765V2.47516V2.48266V2.49016V2.49767V2.50517V2.51267V2.52018V2.52768V2.53519V2.54269V2.55019V2.5577V2.5652V2.5727V2.58021V2.58771V2.59521V2.60272V2.61022V2.61772V2.62523V2.63273V2.64024V2.64774V2.65524V2.66275V2.67025V2.67775V2.68526V2.69276V2.70026V2.70777V2.71527V2.72277V2.73028V2.73778V2.74529V2.75279V2.76029V2.7678V2.7753V2.7828V2.79031V2.79781V2.80531V2.81282V2.82032V2.82782V2.83533V2.84283V2.85034V2.85784V2.86534V2.87285V2.88035V2.88785V2.89536V2.90286V2.91036V2.91787V2.92537V2.93288V2.94038V2.94788V2.95539V2.96289V2.97039V2.9779V2.9854V2.9929V3.00041V3.00791V3.01541V3.02292V3.03042V3.03793V3.04543V3.05293V3.06044V3.06794V3.07544V3.08295V3.09045V3.09795V3.10546V3.11296V3.12046V3.12797V3.13547V3.14298V3.15048V3.15798V3.16549V3.17299V3.18049V3.188V3.1955V3.203V3.21051V3.21801V3.22551V3.23302V3.24052V3.24803V3.25553V3.26303V3.27054V3.27804V3.28554V3.29305V3.30055V3.30805V3.31556V3.32306V3.33056V3.33807V3.34557V3.35308V3.36058V3.36808V3.37559V3.38309V3.39059V3.3981V3.4056V3.4131V3.42061V3.42811V3.43561V3.44312V3.45062V3.45813V3.46563V3.47313V3.48064V3.48814V3.49564V3.50315V3.51065V3.51815V3.52566V3.53316V3.54066V3.54817V3.55567V3.56318V3.57068V3.57818V3.58569V3.59319V3.60069V3.6082V3.6157V3.6232V3.63071V3.63821V3.64571V3.65322V3.66072V3.66823V3.67573V3.68323V3.69074V3.69824V3.70574V3.71325V3.72075V3.72825V3.73576V3.74326V3.75076V3.75827V3.76577V3.77328V3.78078V3.78828V3.79579V3.80329V3.81079V3.8183V3.8258V3.8333V3.84081V3.84831V3.85581V3.86332V3.87082V3.87833V3.88583V3.89333V3.90084V3.90834V3.91584V3.92335V3.93085V3.93835V3.94586V3.95336V3.96087V3.96837V3.97587V3.98338V3.99088V3.99838V4.00589V4.01339V4.02089V4.0284V4.0359V4.0434V4.05091V4.05841V4.06592V4.07342V4.08092V4.08843V4.09593V4.10343V4.11094V4.11844V4.12594V4.13345V4.14095V4.14845V4.15596V4.16346V4.17097V4.17847V4.18597V4.19348V4.20098V4.20848V4.21599V4.22349V4.23099V4.2385V4.246V4.2535V4.26101V4.26851V4.27602V4.28352V4.29102V4.29853V4.30603V4.31353V4.32104V4.32854V4.33604V4.34355V4.35105V4.35855V4.36606V4.37356V4.38107V4.38857V4.39607V4.40358V4.41108V4.41858V4.42609V4.43359V4.44109V4.4486V4.4561V4.4636V4.47111V4.47861V4.48612V4.49362V4.50112V4.50863V4.51613V4.52363V4.53114V4.53864V4.54614V4.55365V4.56115V4.56865V4.57616V4.58366V4.59117V4.59867V4.60617V4.61368V4.62118V4.62868V4.63619V4.64369V4.65119V4.6587V4.6662V4.6737V4.68121V4.68871V4.69622V4.70372V4.71122V4.71873V4.72623V4.73373V4.74124V4.74874V4.75624V4.76375V4.77125V4.77875V4.78626V4.79376V4.80127V4.80877V4.81627V4.82378V4.83128V4.83878V4.84629V4.85379V4.86129V4.8688V4.8763V4.88381V4.89131V4.89881V4.90632V4.91382V4.92132V4.92883V4.93633V4.94383V4.95134V4.95884V4.96634V4.97385V4.98135V4.98886V4.99636V5.00386V5.01137V5.01887V5.02637V5.03388V5.04138V5.04888V5.05639V5.06389V5.07139V5.0789V5.0864V5.09391V5.10141V5.10891V5.11642V5.12392V5.13142V5.13893V5.14643V5.15393V5.16144V5.16894V5.17644V5.18395V5.19145V5.19896V5.20646V5.21396V5.22147V5.22897V5.23647V5.24398V5.25148V5.25898V5.26649V5.27399V5.28149V5.289V5.2965V5.30401V5.31151V5.31901V5.32652V5.33402V5.34152V5.34903V5.35653V5.36403V5.37154V5.37904V5.38654V5.39405V5.40155V5.40906V5.41656V5.42406V5.43157V5.43907V5.44657V5.45408V5.46158V5.46908V5.47659V5.48409V5.49159V5.4991V5.5066V5.51411V5.52161V5.52911V5.53662V5.54346V5.55081V5.55815V5.56549V5.57284V5.58018V5.58753V5.59487V5.60221V5.60956V5.6169V5.62425V5.63159V5.63894V5.64628V5.65363V5.66097V5.66832V5.67566V5.68301V5.69036V5.6977V5.70505V5.7124V5.71974V5.72709V5.73444V5.74178V5.74913V5.75648V5.76382V5.77117V5.77852V5.78587V5.79322V5.80056V5.80791V5.81526V5.82261V5.82996V5.83731V5.84466V5.852V5.85935V5.8667V5.87405V5.8814V5.88875V5.8961V5.90345V5.9108V5.91815V5.9255V5.93285V5.9402V5.94755V5.9549V5.96226V5.96961V5.97696V5.98431V5.99166V5.99901V6.00636V6.01372V6.02107V6.02842V6.03577V6.04312V6.05048V6.05783V6.06518V6.07253V6.07989V6.08724V6.09459V6.10195V6.1093V6.11665V6.12401V6.13136V6.13871V6.14607V6.15342V6.16077V6.16813V6.17548V6.18284V6.19019V6.19755V6.2049V6.21226V6.21961V6.22697V6.23432V6.24168V6.24903V6.25639V6.26374V6.2711V6.27845V6.28581V6.29316V6.30052V6.30788V6.31523V6.32259V6.32995V6.3373V6.34466V6.35201V6.35937V6.36673V6.37408V6.38144V6.3888V6.39616V6.40351V6.41087V6.41823V6.42559V6.43294V6.4403V6.44766V6.45502V6.46237V6.46973V6.47709V6.48445V6.49181V6.49916V6.50652V6.51388V6.52124V6.5286V6.53596V6.54331V6.55067V6.55803V6.56539V6.57275V6.58011V6.58747V6.59483V6.60219V6.60955V6.61691V6.62427V6.63162V6.63898V6.64634V6.6537V6.66106V6.66842V6.67578V6.68314V6.6905V6.69786V6.70522V6.71258V6.71994V6.7273V6.73466V6.74203V6.74939V6.75675V6.76411V6.77147V6.77883V6.78619V6.79355V6.80091V6.80827V6.81563V6.82299V6.83036V6.83772V6.84508V6.85244V6.8598V6.86716V6.87452V6.88188V6.88925V6.89661V6.90397V6.91133V6.91869V6.92605V6.93342V6.94078V6.94814V6.9555V6.96286V6.97022V6.97759V6.98495V6.99231V6.99967V7.00704V7.0144V7.02176V7.02912V7.03648V7.04385V7.05121V7.05857V7.06593V7.0733V7.08066V7.08802V7.09538V7.10275V7.11011V7.11747V7.12483V7.1322V7.13956V7.14692V7.15428V7.16165V7.16901V7.17637V7.18373V7.1911V7.19846V7.20582V7.21319V7.22055V7.22791V7.23528V7.24264V7.25V7.25736V7.26473V7.27209V7.27945V7.28682V7.29418V7.30154V7.30891V7.31627V7.32363V7.33099V7.33836V7.34572V7.35308V7.36045V7.36781V7.37517V7.38254V7.3899V7.39726V7.40463V7.41199V7.41935V7.42671V7.43408V7.44144V7.4488V7.45617V7.46353V7.47089V7.47826V7.48562V7.49298V7.50035V7.50771V7.51507V7.52244V7.5298V7.53716V7.54452V7.55189V7.55925V7.56661V7.57398V7.58134V7.5887V7.59607V7.60343V7.61079V7.61815V7.62552V7.63288V7.64024V7.64761V7.65497V7.66233V7.66969V7.67706V7.68442V7.69178V7.69915V7.70651V7.71387V7.72123V7.7286V7.73596V7.74332V7.75068V7.75805V7.76541V7.77277V7.78013V7.7875V7.79486V7.80222V7.80958V7.81695V7.82431V7.83167V7.83903V7.84639V7.85376V7.86112V7.86848V7.87584V7.8832V7.89057V7.89793V7.90529V7.91265V7.92001V7.92738V7.93474V7.9421V7.94946V7.95682V7.96418V7.97155V7.97891V7.98627V7.99363V8.00099V8.00835V8.01571V8.02307V8.03044V8.0378V8.04516V8.05252V8.05988V8.06724V8.0746V8.08196V8.08932V8.09668V8.10404V8.1114V8.11876V8.12613V8.13349V8.14085V8.14821V8.15557V8.16293V8.17029V8.17765V8.18501V8.19237V8.19973V8.20709V8.21445V8.22181V8.22916V8.23652V8.24388V8.25124V8.2586V8.26596V8.27332V8.28068V8.28804V8.2954V8.30276V8.31011V8.31747V8.32483V8.33219V8.33955V8.34691V8.35427V8.36162V8.36898V8.37634V8.3837V8.39106V8.39841V8.40577V8.41313V8.42049V8.42784V8.4352V8.44256V8.44992V8.45727V8.46463V8.47199V8.47934V8.4867V8.49406V8.50142V8.50877V8.51613V8.52348V8.53084V8.5382V8.54555V8.55291V8.56027V8.56762V8.57498V8.58233V8.58969V8.59704V8.6044V8.61175V8.61911V8.62646V8.63382V8.64117V8.64853V8.65588V8.66324V8.67059V8.67795V8.6853V8.69266V8.70001V8.70736V8.71472V8.72207V8.72942V8.73678V8.74413V8.75148V8.75884V8.76619V8.77354V8.7809V8.78825V8.7956V8.80295V8.81031V8.81335H10.9667H10.9809H10.995H11.0092H11.0234H11.0375H11.0517H11.0659H11.08H11.0942H11.1084H11.1225H11.1367H11.1508H11.165H11.1792H11.1933H11.2075H11.2217H11.2358H11.25H11.2641H11.2783H11.2925H11.3066H11.3208H11.3349H11.3491H11.3633H11.3774H11.3916H11.4058H11.4199H11.4341H11.4482H11.4624H11.4766H11.4907H11.5049H11.519H11.5332H11.5474H11.5615H11.5757H11.5898H11.604H11.6181H11.6323H11.6465H11.6606H11.6748H11.6889H11.7031H11.7173H11.7314H11.7456H11.7597H11.7739H11.788H11.8022H11.8164H11.8305H11.8447H11.8588H11.873H11.8871H11.9013H11.9154H11.9296H11.9438H11.9579H11.9721H11.9862H12.0004H12.0145H12.0287H12.0428H12.057H12.0712H12.0853H12.0995H12.1136H12.1278H12.1419H12.1561H12.1702H12.1844H12.1985H12.2127H12.2268H12.241H12.2552H12.2693H12.2835H12.2976H12.3118H12.3259H12.3401H12.3542H12.3684H12.3825H12.3967H12.4108H12.425H12.4391H12.4533H12.4674H12.4816H12.4957H12.5099H12.524H12.5382H12.5523H12.5665H12.5806H12.5948H12.6089H12.6231H12.6372H12.6514H12.6655H12.6797H12.6938H12.708H12.7221H12.7363H12.7504H12.7646H12.7787H12.7929H12.807H12.8212H12.8353H12.8495H12.8636H12.8778H12.8919H12.9061H12.9202H12.9344H12.9485H12.9627H12.9768H12.991H13.0051H13.0192H13.0334H13.0475H13.0617H13.0758H13.09H13.1041H13.1183H13.1324H13.1466H13.1607H13.1749H13.189H13.2032H13.2173H13.2314H13.2456H13.2597H13.2739H13.288H13.3022H13.3163H13.3305H13.3446H13.3587H13.3729H13.387H13.4012H13.4153H13.4295H13.4436H13.4578H13.4719H13.486H13.5002H13.5143H13.5285H13.5426H13.5568H13.5709H13.5851H13.5992H13.6133H13.6275H13.6416H13.6558H13.6699H13.6841H13.6982H13.7123H13.7265H13.7406H13.7548H13.7689H13.783H13.7972H13.8113H13.8255H13.8396H13.8538H13.8679H13.882H13.8962H13.9103H13.9245H13.9386H13.9527H13.9669H13.981H13.9952H14.0093H14.0235H14.0376H14.0517H14.0659H14.08H14.0942H14.1083H14.1224H14.1366H14.1507H14.1649H14.179H14.1931H14.2073H14.2214H14.2356H14.2497H14.2638H14.278H14.2921H14.3062H14.3204H14.3345H14.3487H14.3628H14.3769H14.3911H14.4052H14.4194H14.4335H14.4476H14.4618H14.4759H14.49H14.5042H14.5183H14.5325H14.5466H14.5607H14.5749H14.589H14.6032H14.6173H14.6314H14.6456H14.6597H14.6738H14.688H14.7021H14.7163H14.7304H14.7445H14.7587H14.7728H14.7869H14.8011H14.8152H14.8293H14.8435H14.8576H14.8718H14.8859H14.9H14.9142H14.9283H14.9424H14.9566H14.9707H14.9848H14.999H15.0131H15.0273H15.0414H15.0555H15.0697H15.0838H15.0979H15.1121H15.1262H15.1403H15.1545H15.1686H15.1827H15.1969H15.211H15.2251H15.2393H15.2534H15.2675H15.2817H15.2958H15.31H15.3241H15.3382H15.3524H15.3665H15.3806H15.3948H15.4089H15.423H15.4372H15.4513H15.4654H15.4796H15.4937H15.5078H15.522H15.5361H15.5502H15.5644H15.5785H15.5926H15.6068H15.6209H15.635H15.6492H15.6633H15.6774H15.6916H15.7057H15.7198H15.734H15.7481H15.7622H15.7764H15.7905H15.8046H15.8188H15.8329H15.847H15.8612H15.8753H15.8894H15.9036H15.9177H15.9318H15.946H15.9601H15.9742H15.9884H16.0025H16.0166H16.0308H16.0449H16.059H16.0732H16.0873H16.1014H16.1156H16.1297H16.1438H16.1579H16.1721H16.1862H16.2003H16.2145H16.2286H16.2427H16.2569H16.271H16.2851H16.2993H16.3134H16.3275H16.3417H16.3558H16.3699H16.3841H16.3982H16.4123H16.4265H16.4406H16.4547H16.4688H16.483H16.4971H16.5112H16.5254H16.5395H16.5536H16.5678H16.5819H16.596H16.6102H16.6243H16.6384H16.6526H16.6667H16.6808H16.6949H16.7091H16.7232H16.7373H16.7515H16.7656H16.7797H16.7939H16.808H16.8221H16.8363H16.8504H16.8645H16.8786H16.8928H16.9069H16.921H16.9352H16.9493H16.9634H16.9776H16.9917H17.0058H17.02H17.0341H17.0482H17.0623H17.0765H17.0906H17.1047H17.1189H17.133H17.1471H17.1613H17.1754H17.1895H17.2037H17.2178H17.2319H17.246H17.2602H17.2743H17.2884H17.3026H17.3167H17.3308H17.345H17.3591H17.3732H17.3873H17.4015H17.4156H17.4297H17.4439H17.458H17.4616C17.3156 7.83475 16.9851 6.91502 16.477 6.0551L16.4755 6.05246L16.4755 6.05246C15.7886 4.87902 14.8553 3.95775 13.6776 3.27519L10.96 2.31729ZM10.96 2.31729C11.9192 2.46156 12.8248 2.78141 13.6774 3.27504L10.96 2.31729ZM17.5517 9.38781C17.5517 9.38781 17.5516 9.38662 17.5514 9.38435L17.5517 9.38781ZM10.96 1.69333C10.9601 1.69037 10.9601 1.68899 10.9602 1.68904L10.96 1.69333ZM10.3531 2.24992C10.3508 2.24986 10.3495 2.24978 10.3494 2.24976L10.3531 2.24992Z" stroke="white" stroke-width="1.5"/>
<path d="M17.5519 10.8645L17.5519 10.8645C17.5521 10.8624 17.5522 10.8623 17.5519 10.8645ZM15.4937 15.4732C14.2883 14.1459 13.0829 12.822 11.8777 11.4991H11.8859H11.9001H11.9143H11.9285H11.9426H11.9568H11.971H11.9851H11.9993H12.0135H12.0277H12.0418H12.056H12.0702H12.0844H12.0985H12.1127H12.1269H12.141H12.1552H12.1694H12.1836H12.1977H12.2119H12.2261H12.2402H12.2544H12.2686H12.2828H12.2969H12.3111H12.3253H12.3395H12.3536H12.3678H12.382H12.3961H12.4103H12.4245H12.4387H12.4528H12.467H12.4812H12.4953H12.5095H12.5237H12.5379H12.552H12.5662H12.5804H12.5946H12.6087H12.6229H12.6371H12.6512H12.6654H12.6796H12.6938H12.7079H12.7221H12.7363H12.7504H12.7646H12.7788H12.793H12.8071H12.8213H12.8355H12.8497H12.8638H12.878H12.8922H12.9063H12.9205H12.9347H12.9489H12.963H12.9772H12.9914H13.0055H13.0197H13.0339H13.0481H13.0622H13.0764H13.0906H13.1048H13.1189H13.1331H13.1473H13.1614H13.1756H13.1898H13.204H13.2181H13.2323H13.2465H13.2606H13.2748H13.289H13.3032H13.3173H13.3315H13.3457H13.3599H13.374H13.3882H13.4024H13.4165H13.4307H13.4449H13.4591H13.4732H13.4874H13.5016H13.5157H13.5299H13.5441H13.5583H13.5724H13.5866H13.6008H13.615H13.6291H13.6433H13.6575H13.6716H13.6858H13.7H13.7142H13.7283H13.7425H13.7567H13.7708H13.785H13.7992H13.8134H13.8275H13.8417H13.8559H13.8701H13.8842H13.8984H13.9126H13.9267H13.9409H13.9551H13.9693H13.9834H13.9976H14.0118H14.0259H14.0401H14.0543H14.0685H14.0826H14.0968H14.111H14.1252H14.1393H14.1535H14.1677H14.1818H14.196H14.2102H14.2244H14.2385H14.2527H14.2669H14.281H14.2952H14.3094H14.3236H14.3377H14.3519H14.3661H14.3802H14.3944H14.4086H14.4228H14.4369H14.4511H14.4653H14.4795H14.4936H14.5078H14.522H14.5361H14.5503H14.5645H14.5787H14.5928H14.607H14.6212H14.6353H14.6495H14.6637H14.6779H14.692H14.7062H14.7204H14.7346H14.7487H14.7629H14.7771H14.7912H14.8054H14.8196H14.8338H14.8479H14.8621H14.8763H14.8904H14.9046H14.9188H14.933H14.9471H14.9613H14.9755H14.9897H15.0038H15.018H15.0322H15.0463H15.0605H15.0747H15.0889H15.103H15.1172H15.1314H15.1455H15.1597H15.1739H15.1881H15.2022H15.2164H15.2306H15.2448H15.2589H15.2731H15.2873H15.3014H15.3156H15.3298H15.344H15.3581H15.3723H15.3865H15.4006H15.4148H15.429H15.4432H15.4573H15.4715H15.4857H15.4999H15.514H15.5282H15.5424H15.5565H15.5707H15.5849H15.5991H15.6132H15.6274H15.6416H15.6557H15.6699H15.6841H15.6983H15.7124H15.7266H15.7408H15.755H15.7691H15.7833H15.7975H15.8116H15.8258H15.84H15.8542H15.8683H15.8825H15.8967H15.9108H15.925H15.9392H15.9534H15.9675H15.9817H15.9959H16.0101H16.0242H16.0384H16.0526H16.0667H16.0809H16.0951H16.1093H16.1234H16.1376H16.1518H16.1659H16.1801H16.1943H16.2085H16.2226H16.2368H16.251H16.2652H16.2793H16.2935H16.3077H16.3218H16.336H16.3502H16.3644H16.3785H16.3927H16.4069H16.421H16.4352H16.4494H16.4636H16.4777H16.4919H16.5061H16.5202H16.5344H16.5486H16.5628H16.5769H16.5911H16.6053H16.6195H16.6336H16.6478H16.662H16.6761H16.6903H16.7045H16.7187H16.7328H16.747H16.7612H16.7753H16.7895H16.8037H16.8179H16.832H16.8462H16.8604H16.8746H16.8887H16.9029H16.9171H16.9312H16.9454H16.9596H16.9738H16.9879H17.0021H17.0163H17.0304H17.0446H17.0588H17.073H17.0871H17.1013H17.1155H17.1297H17.1438H17.158H17.1722H17.1863H17.2005H17.2147H17.2289H17.243H17.2572H17.2714H17.2855H17.2997H17.3139H17.3281H17.3422H17.3564H17.3706H17.3848H17.3989H17.4131H17.4273H17.4414H17.4556H17.4691C17.2173 12.9737 16.5648 14.295 15.4937 15.4732ZM15.0427 15.9371C15.0427 15.937 15.0436 15.9362 15.0452 15.9347C15.0435 15.9364 15.0426 15.9371 15.0427 15.9371ZM18.1016 11.4993C18.1015 11.4993 18.1004 11.4992 18.0984 11.4991L18.1016 11.4993Z" stroke="white" stroke-width="1.5"/>
</svg>
