<svg width="20" height="20" viewBox="0 0 20 20" fill="none" xmlns="http://www.w3.org/2000/svg">
<path d="M2 10.0024C2 7.79156 2 5.58075 2 3.37467C2 2.68025 2.39186 2.17006 3.02921 2.02834C3.14724 2 3.26999 2 3.39274 2C6.80614 2 10.2148 2 13.6282 2C14.478 2 15.021 2.54325 15.021 3.39356C15.021 5.85946 15.021 8.32536 15.021 10.7913C15.021 10.933 15.0587 10.9849 15.2004 11.0133C16.8197 11.3298 17.9953 12.7895 18 14.4759C18 16.1293 16.8197 17.5937 15.2192 17.9244C14.9312 17.9858 14.6433 18 14.3553 18C13.5291 18 12.7076 18 11.8814 18C9.05341 18 6.22071 18 3.39274 18C2.69401 18 2.18885 17.6126 2.04249 16.9796C2.00944 16.8474 2.01416 16.7151 2.01416 16.5828C2.01416 14.3909 2.01416 12.199 2.01416 10.0071L2 10.0024ZM11.8767 16.8851C11.8294 16.8285 11.8106 16.8048 11.7917 16.7812C10.0354 14.7216 11.1024 11.5754 13.7462 11.0133C13.8643 10.9897 13.9115 10.9472 13.9115 10.8149C13.9068 8.35371 13.9115 5.89253 13.9115 3.43608C13.9115 3.15264 13.8784 3.11957 13.5904 3.11957C10.2054 3.11957 6.82502 3.11957 3.43995 3.11957C3.14724 3.11957 3.12836 3.14319 3.12836 3.4408C3.12836 7.81518 3.12836 12.1895 3.12836 16.5639C3.12836 16.8663 3.15196 16.8851 3.45884 16.8851C6.19711 16.8851 8.93538 16.8851 11.6736 16.8851C11.7303 16.8851 11.7917 16.8851 11.8861 16.8851H11.8767ZM14.4544 16.8804C15.7905 16.8851 16.8622 15.8223 16.8764 14.4759C16.8858 13.1863 15.8188 12.0856 14.5819 12.0478C13.1655 12.0006 12.0466 13.1296 12.0466 14.4476C12.0466 15.7986 13.1089 16.8757 14.4544 16.8804Z" fill="white"/>
<path d="M8.51495 9.06637C7.4102 9.06637 6.31017 9.06637 5.20542 9.06637C4.78524 9.06637 4.51613 8.73117 4.62472 8.35819C4.69082 8.14102 4.84189 8.00411 5.06851 7.96634C5.12516 7.9569 5.18182 7.95218 5.24319 7.95218C7.41965 7.95218 9.60082 7.95218 11.7773 7.95218C12.155 7.95218 12.4052 8.16935 12.4146 8.49511C12.4241 8.81615 12.1927 9.06165 11.867 9.06637C11.4279 9.07109 10.9841 9.06637 10.5451 9.06637C9.86993 9.06637 9.19952 9.06637 8.5244 9.06637H8.51495Z" fill="white"/>
<path d="M8.501 6.09028C7.39625 6.09028 6.29622 6.09028 5.19147 6.09028C4.79017 6.09028 4.52107 5.75036 4.62493 5.38211C4.69103 5.14605 4.89876 4.98553 5.1537 4.97609C5.35671 4.97137 5.55972 4.97609 5.76273 4.97609C7.77866 4.97609 9.7946 4.97609 11.8105 4.97609C12.1457 4.97609 12.3865 5.18382 12.4101 5.48125C12.4384 5.83534 12.1882 6.095 11.8153 6.095C10.7105 6.095 9.61047 6.095 8.50572 6.095L8.501 6.09028Z" fill="white"/>
<path d="M7.57083 12.0519C6.78712 12.0519 6.0034 12.0519 5.21969 12.0519C4.79951 12.0519 4.52568 11.7214 4.62483 11.3437C4.6862 11.1171 4.87977 10.9519 5.1111 10.9377C5.29523 10.9283 5.48408 10.9377 5.6682 10.9377C7.07983 10.9377 8.49145 10.9377 9.90308 10.9377C10.0778 10.9377 10.2383 10.9566 10.3705 11.0841C10.5216 11.2351 10.5876 11.4098 10.5357 11.6223C10.4791 11.8442 10.3374 11.9858 10.1108 12.033C10.04 12.0472 9.95973 12.0519 9.88419 12.0519C9.10992 12.0519 8.34038 12.0519 7.56611 12.0519H7.57083Z" fill="white"/>
<path d="M7.19299 15.0233C6.53675 15.0233 5.88051 15.0233 5.22427 15.0233C4.85602 15.0233 4.60107 14.7919 4.60107 14.4662C4.60107 14.1404 4.85602 13.9091 5.22427 13.9091C6.55091 13.9091 7.87284 13.9091 9.19948 13.9091C9.55357 13.9091 9.80851 14.1357 9.81323 14.4567C9.81795 14.7825 9.55829 15.0233 9.19948 15.0233C8.5338 15.0233 7.86339 15.0233 7.19771 15.0233H7.19299Z" fill="white"/>
<path d="M14.0911 15.7656C13.9306 15.7656 13.7984 15.7089 13.6851 15.5955C13.4443 15.3546 13.1988 15.1137 12.958 14.868C12.7267 14.6318 12.7267 14.2964 12.9439 14.0744C13.1658 13.8524 13.501 13.8524 13.7417 14.0744C13.7512 14.0838 13.7559 14.0933 13.7653 14.098C13.8787 14.1972 13.9684 14.3909 14.0911 14.3815C14.1997 14.3767 14.3036 14.2019 14.4027 14.098C14.6482 13.8524 14.8937 13.602 15.1439 13.3611C15.3941 13.1154 15.7388 13.1013 15.9654 13.328C16.1967 13.5595 16.1826 13.8949 15.9324 14.15C15.4602 14.6224 14.9881 15.0948 14.516 15.5672C14.398 15.6853 14.2611 15.7656 14.0864 15.7608L14.0911 15.7656Z" fill="white"/>
</svg>
