<svg width="20" height="20" viewBox="0 0 20 20" fill="none" xmlns="http://www.w3.org/2000/svg">
<path fill-rule="evenodd" clip-rule="evenodd" d="M15.8214 7.50005H16C16.2761 7.50005 16.5 7.72391 16.5 8.00005V14.0001C16.5 14.2762 16.2761 14.5001 16 14.5001H4C3.72386 14.5001 3.5 14.2762 3.5 14.0001V8.00005C3.5 7.72391 3.72386 7.50005 4 7.50005H4.17858L3.02235 6.25488C2.41224 6.5974 2 7.25058 2 8.00005V14.0001C2 15.1046 2.89543 16.0001 4 16.0001H16C17.1046 16.0001 18 15.1046 18 14.0001V8.00005C18 7.25058 17.5878 6.5974 16.9777 6.25488L15.8214 7.50005Z" fill="white"/>
<path fill-rule="evenodd" clip-rule="evenodd" d="M16 17H4C2.89543 17 2 16.1046 2 15V16.5C2 17.6046 2.89543 18.5 4 18.5H16C17.1046 18.5 18 17.6046 18 16.5V15C18 16.1046 17.1046 17 16 17Z" fill="white"/>
<path d="M6.5 1.5V6M4 4.5L5.79289 6.29289C6.18342 6.68342 6.81658 6.68342 7.20711 6.29289L9 4.5" stroke="white" stroke-width="1.5" stroke-linecap="round" stroke-linejoin="round"/>
<path d="M13.5 7.5V3M11 4.5L12.7929 2.70711C13.1834 2.31658 13.8166 2.31658 14.2071 2.70711L16 4.5" stroke="white" stroke-width="1.5" stroke-linecap="round" stroke-linejoin="round"/>
<circle cx="10" cy="11" r="2.25" stroke="white" stroke-width="1.5"/>
<circle cx="5" cy="11" r="1" fill="white"/>
<circle cx="15" cy="11" r="1" fill="white"/>
</svg>
