<svg width="20" height="20" viewBox="0 0 20 20" fill="none" xmlns="http://www.w3.org/2000/svg">
<path d="M3 3.5C3 2.80964 3.55964 2.25 4.25 2.25H11.25C11.9404 2.25 12.5 2.80964 12.5 3.5V17.75H3V3.5Z" stroke="white" stroke-width="1.5"/>
<rect x="5.5" y="4.5" width="1.5" height="1.5" fill="white"/>
<rect x="8.5" y="4.5" width="1.5" height="1.5" fill="white"/>
<rect x="5.5" y="8.5" width="1.5" height="1.5" fill="white"/>
<rect x="8.5" y="8.5" width="1.5" height="1.5" fill="white"/>
<rect x="5.5" y="12.5" width="1.5" height="1.5" fill="white"/>
<rect x="8.5" y="12.5" width="1.5" height="1.5" fill="white"/>
<path d="M12.5 7.5C12.5 6.80964 13.0596 6.25 13.75 6.25H15.75C16.4404 6.25 17 6.80964 17 7.5V17.75H12.5V7.5Z" stroke="white" stroke-width="1.5"/>
<rect x="14" y="8.5" width="1.5" height="1.5" fill="white"/>
<rect x="14" y="12.5" width="1.5" height="1.5" fill="white"/>
</svg>
