<svg width="20" height="20" viewBox="0 0 20 20" fill="none" xmlns="http://www.w3.org/2000/svg">
<mask id="path-1-outside-1_28_1457" maskUnits="userSpaceOnUse" x="1" y="0.199997" width="18" height="19" fill="black">
<rect fill="white" x="1" y="0.199997" width="18" height="19"/>
<path d="M4.53641 18.69C4.53641 17.85 4.53641 17.02 4.53641 16.18C4.53641 15.78 4.61856 15.39 4.74179 15.01C4.77259 14.91 4.76232 14.85 4.68017 14.78C4.22834 14.37 3.79705 13.95 3.34522 13.54C3.24253 13.44 3.21173 13.38 3.30415 13.25C3.60194 12.8 3.88947 12.33 4.18727 11.88C4.24888 11.78 4.24888 11.71 4.19754 11.6C4.12566 11.45 4.06404 11.3 4.00243 11.14C3.97162 11.04 3.91001 11 3.80732 10.97C3.2528 10.85 2.70855 10.72 2.15403 10.59C2.04108 10.56 2 10.53 2 10.4C2 9.46 2 8.52 2 7.58C2 7.44 2.05134 7.4 2.17457 7.37C2.71882 7.25 3.26307 7.12 3.80732 7C3.89974 6.98 3.95108 6.94 3.99216 6.85C4.05377 6.68 4.12566 6.51 4.20781 6.35C4.24888 6.27 4.23861 6.21 4.18727 6.13C3.8792 5.65 3.58141 5.17 3.27334 4.7C3.21173 4.61 3.22199 4.56 3.30415 4.49C4.00243 3.82 4.69044 3.15 5.37846 2.47C5.46061 2.39 5.51195 2.38 5.61464 2.44C6.09728 2.74 6.59018 3.02 7.07282 3.32C7.15497 3.37 7.21658 3.38 7.309 3.34C7.47331 3.26 7.63761 3.2 7.81218 3.14C7.91487 3.11 7.95594 3.05 7.97648 2.95C8.09971 2.41 8.2332 1.88 8.3667 1.34C8.38723 1.23 8.42831 1.2 8.55154 1.2C9.51681 1.2 10.4821 1.2 11.4474 1.2C11.5809 1.2 11.6219 1.24 11.6527 1.36C11.776 1.9 11.9095 2.43 12.043 2.97C12.0635 3.06 12.1046 3.11 12.197 3.15C12.3716 3.21 12.5461 3.28 12.7104 3.36C12.7926 3.4 12.8542 3.4 12.9363 3.35C13.4292 3.05 13.9222 2.76 14.4048 2.46C14.4972 2.4 14.5486 2.41 14.6204 2.48C15.3084 3.16 15.9965 3.83 16.6947 4.5C16.7769 4.58 16.7872 4.63 16.7256 4.73C16.4175 5.2 16.13 5.68 15.8219 6.15C15.7705 6.23 15.7603 6.29 15.8014 6.38C15.8835 6.54 15.9554 6.71 16.017 6.88C16.0478 6.97 16.0992 7 16.1813 7.02C16.7358 7.14 17.2801 7.27 17.8346 7.4C17.9475 7.43 18.0092 7.46 17.9989 7.6C17.9989 8.54 17.9989 9.49 17.9989 10.43C17.9989 10.54 17.9681 10.59 17.8551 10.61C17.3006 10.73 16.7564 10.86 16.2018 10.99C16.0889 11.01 16.0375 11.06 15.9965 11.17C15.9451 11.33 15.8835 11.48 15.8014 11.63C15.7397 11.74 15.7603 11.81 15.8219 11.91C16.1197 12.37 16.4072 12.84 16.705 13.3C16.7666 13.39 16.7564 13.44 16.6845 13.52C16.2532 13.96 15.8322 14.41 15.4009 14.85C15.329 14.92 15.3084 14.99 15.3393 15.09C15.4728 15.52 15.5344 15.95 15.5344 16.4C15.5344 17.17 15.5344 17.95 15.5344 18.72H4.53641V18.69ZM12.2483 11.84C12.2483 11.84 12.2689 11.86 12.2791 11.86C13.3368 12.24 14.1789 12.89 14.7847 13.82C14.8361 13.89 14.8669 13.87 14.908 13.82C15.062 13.66 15.2058 13.5 15.3598 13.35C15.4419 13.27 15.4317 13.22 15.3803 13.14C15.1133 12.72 14.8464 12.3 14.5794 11.88C14.5383 11.81 14.5177 11.76 14.5588 11.68C14.7642 11.2 14.9696 10.73 15.1647 10.25C15.1955 10.17 15.2468 10.13 15.3393 10.11C15.8219 10 16.3045 9.89 16.7872 9.78C16.9001 9.75 16.9412 9.71 16.9412 9.59C16.9412 9.2 16.9309 8.8 16.9412 8.41C16.9412 8.28 16.8899 8.24 16.7769 8.21C16.3045 8.1 15.8219 7.99 15.3495 7.88C15.2571 7.86 15.2058 7.82 15.1647 7.73C14.9696 7.26 14.7745 6.8 14.5691 6.33C14.528 6.24 14.5383 6.18 14.5896 6.1C14.8566 5.69 15.1133 5.27 15.3803 4.85C15.4317 4.76 15.4317 4.72 15.3598 4.65C15.062 4.36 14.7642 4.08 14.4664 3.78C14.3945 3.7 14.3432 3.7 14.2508 3.76C13.8297 4.02 13.3984 4.27 12.9671 4.53C12.885 4.58 12.8234 4.58 12.7412 4.55C12.2586 4.35 11.776 4.16 11.2933 3.96C11.2112 3.93 11.1701 3.88 11.1496 3.79C11.0366 3.32 10.9236 2.85 10.8107 2.38C10.7901 2.27 10.7491 2.22 10.6156 2.23C10.2151 2.24 9.80434 2.24 9.40385 2.23C9.27036 2.23 9.22928 2.27 9.19848 2.39C9.09579 2.86 8.97256 3.32 8.8596 3.78C8.83906 3.87 8.79799 3.93 8.70557 3.96C8.22293 4.15 7.75057 4.34 7.26793 4.54C7.17551 4.58 7.1139 4.57 7.03174 4.52C6.61072 4.26 6.17943 4.01 5.74814 3.75C5.66599 3.7 5.61464 3.69 5.54276 3.77C5.24496 4.07 4.94716 4.36 4.6391 4.65C4.55695 4.72 4.56722 4.77 4.61856 4.85C4.88555 5.26 5.14227 5.68 5.40926 6.1C5.46061 6.18 5.47088 6.25 5.4298 6.33C5.23469 6.78 5.02932 7.24 4.84448 7.7C4.79313 7.82 4.73152 7.87 4.60829 7.89C4.13592 7.99 3.66356 8.11 3.19119 8.21C3.07823 8.23 3.04742 8.28 3.04742 8.39C3.04742 8.79 3.05769 9.19 3.04742 9.59C3.04742 9.72 3.09877 9.75 3.21173 9.78C3.68409 9.89 4.16673 10 4.6391 10.11C4.74179 10.13 4.79313 10.18 4.83421 10.27C5.02932 10.73 5.21415 11.18 5.41953 11.64C5.47088 11.75 5.45034 11.82 5.38873 11.92C5.132 12.32 4.87528 12.73 4.61856 13.14C4.57749 13.2 4.53641 13.24 4.61856 13.31C4.83421 13.49 5.02932 13.69 5.24496 13.89C5.87136 12.92 6.73395 12.25 7.83272 11.86C6.12808 10.48 6.11782 8.19 7.4425 6.81C8.79799 5.41 11.0263 5.34 12.464 6.66C13.9427 8.02 13.994 10.45 12.2381 11.85L12.2483 11.84ZM10.0303 17.65C11.4576 17.65 12.8953 17.65 14.3226 17.65C14.4459 17.65 14.4972 17.63 14.4869 17.49C14.4767 17.13 14.4869 16.77 14.4869 16.41C14.4664 14.61 13.2547 13.1 11.4782 12.72C10.6258 12.54 9.74272 12.57 8.88014 12.67C7.25766 12.86 5.91244 14.17 5.65572 15.74C5.5633 16.3 5.61464 16.86 5.5941 17.43C5.5941 17.59 5.62491 17.65 5.80975 17.65C7.21658 17.65 8.62342 17.65 10.0303 17.65ZM12.505 9.15C12.505 7.83 11.4063 6.75 10.0508 6.74C8.68503 6.74 7.57599 7.81 7.57599 9.14C7.57599 10.46 8.67476 11.54 10.0303 11.55C11.396 11.55 12.505 10.48 12.505 9.15Z"/>
</mask>
<path d="M4.53641 18.69C4.53641 17.85 4.53641 17.02 4.53641 16.18C4.53641 15.78 4.61856 15.39 4.74179 15.01C4.77259 14.91 4.76232 14.85 4.68017 14.78C4.22834 14.37 3.79705 13.95 3.34522 13.54C3.24253 13.44 3.21173 13.38 3.30415 13.25C3.60194 12.8 3.88947 12.33 4.18727 11.88C4.24888 11.78 4.24888 11.71 4.19754 11.6C4.12566 11.45 4.06404 11.3 4.00243 11.14C3.97162 11.04 3.91001 11 3.80732 10.97C3.2528 10.85 2.70855 10.72 2.15403 10.59C2.04108 10.56 2 10.53 2 10.4C2 9.46 2 8.52 2 7.58C2 7.44 2.05134 7.4 2.17457 7.37C2.71882 7.25 3.26307 7.12 3.80732 7C3.89974 6.98 3.95108 6.94 3.99216 6.85C4.05377 6.68 4.12566 6.51 4.20781 6.35C4.24888 6.27 4.23861 6.21 4.18727 6.13C3.8792 5.65 3.58141 5.17 3.27334 4.7C3.21173 4.61 3.22199 4.56 3.30415 4.49C4.00243 3.82 4.69044 3.15 5.37846 2.47C5.46061 2.39 5.51195 2.38 5.61464 2.44C6.09728 2.74 6.59018 3.02 7.07282 3.32C7.15497 3.37 7.21658 3.38 7.309 3.34C7.47331 3.26 7.63761 3.2 7.81218 3.14C7.91487 3.11 7.95594 3.05 7.97648 2.95C8.09971 2.41 8.2332 1.88 8.3667 1.34C8.38723 1.23 8.42831 1.2 8.55154 1.2C9.51681 1.2 10.4821 1.2 11.4474 1.2C11.5809 1.2 11.6219 1.24 11.6527 1.36C11.776 1.9 11.9095 2.43 12.043 2.97C12.0635 3.06 12.1046 3.11 12.197 3.15C12.3716 3.21 12.5461 3.28 12.7104 3.36C12.7926 3.4 12.8542 3.4 12.9363 3.35C13.4292 3.05 13.9222 2.76 14.4048 2.46C14.4972 2.4 14.5486 2.41 14.6204 2.48C15.3084 3.16 15.9965 3.83 16.6947 4.5C16.7769 4.58 16.7872 4.63 16.7256 4.73C16.4175 5.2 16.13 5.68 15.8219 6.15C15.7705 6.23 15.7603 6.29 15.8014 6.38C15.8835 6.54 15.9554 6.71 16.017 6.88C16.0478 6.97 16.0992 7 16.1813 7.02C16.7358 7.14 17.2801 7.27 17.8346 7.4C17.9475 7.43 18.0092 7.46 17.9989 7.6C17.9989 8.54 17.9989 9.49 17.9989 10.43C17.9989 10.54 17.9681 10.59 17.8551 10.61C17.3006 10.73 16.7564 10.86 16.2018 10.99C16.0889 11.01 16.0375 11.06 15.9965 11.17C15.9451 11.33 15.8835 11.48 15.8014 11.63C15.7397 11.74 15.7603 11.81 15.8219 11.91C16.1197 12.37 16.4072 12.84 16.705 13.3C16.7666 13.39 16.7564 13.44 16.6845 13.52C16.2532 13.96 15.8322 14.41 15.4009 14.85C15.329 14.92 15.3084 14.99 15.3393 15.09C15.4728 15.52 15.5344 15.95 15.5344 16.4C15.5344 17.17 15.5344 17.95 15.5344 18.72H4.53641V18.69ZM12.2483 11.84C12.2483 11.84 12.2689 11.86 12.2791 11.86C13.3368 12.24 14.1789 12.89 14.7847 13.82C14.8361 13.89 14.8669 13.87 14.908 13.82C15.062 13.66 15.2058 13.5 15.3598 13.35C15.4419 13.27 15.4317 13.22 15.3803 13.14C15.1133 12.72 14.8464 12.3 14.5794 11.88C14.5383 11.81 14.5177 11.76 14.5588 11.68C14.7642 11.2 14.9696 10.73 15.1647 10.25C15.1955 10.17 15.2468 10.13 15.3393 10.11C15.8219 10 16.3045 9.89 16.7872 9.78C16.9001 9.75 16.9412 9.71 16.9412 9.59C16.9412 9.2 16.9309 8.8 16.9412 8.41C16.9412 8.28 16.8899 8.24 16.7769 8.21C16.3045 8.1 15.8219 7.99 15.3495 7.88C15.2571 7.86 15.2058 7.82 15.1647 7.73C14.9696 7.26 14.7745 6.8 14.5691 6.33C14.528 6.24 14.5383 6.18 14.5896 6.1C14.8566 5.69 15.1133 5.27 15.3803 4.85C15.4317 4.76 15.4317 4.72 15.3598 4.65C15.062 4.36 14.7642 4.08 14.4664 3.78C14.3945 3.7 14.3432 3.7 14.2508 3.76C13.8297 4.02 13.3984 4.27 12.9671 4.53C12.885 4.58 12.8234 4.58 12.7412 4.55C12.2586 4.35 11.776 4.16 11.2933 3.96C11.2112 3.93 11.1701 3.88 11.1496 3.79C11.0366 3.32 10.9236 2.85 10.8107 2.38C10.7901 2.27 10.7491 2.22 10.6156 2.23C10.2151 2.24 9.80434 2.24 9.40385 2.23C9.27036 2.23 9.22928 2.27 9.19848 2.39C9.09579 2.86 8.97256 3.32 8.8596 3.78C8.83906 3.87 8.79799 3.93 8.70557 3.96C8.22293 4.15 7.75057 4.34 7.26793 4.54C7.17551 4.58 7.1139 4.57 7.03174 4.52C6.61072 4.26 6.17943 4.01 5.74814 3.75C5.66599 3.7 5.61464 3.69 5.54276 3.77C5.24496 4.07 4.94716 4.36 4.6391 4.65C4.55695 4.72 4.56722 4.77 4.61856 4.85C4.88555 5.26 5.14227 5.68 5.40926 6.1C5.46061 6.18 5.47088 6.25 5.4298 6.33C5.23469 6.78 5.02932 7.24 4.84448 7.7C4.79313 7.82 4.73152 7.87 4.60829 7.89C4.13592 7.99 3.66356 8.11 3.19119 8.21C3.07823 8.23 3.04742 8.28 3.04742 8.39C3.04742 8.79 3.05769 9.19 3.04742 9.59C3.04742 9.72 3.09877 9.75 3.21173 9.78C3.68409 9.89 4.16673 10 4.6391 10.11C4.74179 10.13 4.79313 10.18 4.83421 10.27C5.02932 10.73 5.21415 11.18 5.41953 11.64C5.47088 11.75 5.45034 11.82 5.38873 11.92C5.132 12.32 4.87528 12.73 4.61856 13.14C4.57749 13.2 4.53641 13.24 4.61856 13.31C4.83421 13.49 5.02932 13.69 5.24496 13.89C5.87136 12.92 6.73395 12.25 7.83272 11.86C6.12808 10.48 6.11782 8.19 7.4425 6.81C8.79799 5.41 11.0263 5.34 12.464 6.66C13.9427 8.02 13.994 10.45 12.2381 11.85L12.2483 11.84ZM10.0303 17.65C11.4576 17.65 12.8953 17.65 14.3226 17.65C14.4459 17.65 14.4972 17.63 14.4869 17.49C14.4767 17.13 14.4869 16.77 14.4869 16.41C14.4664 14.61 13.2547 13.1 11.4782 12.72C10.6258 12.54 9.74272 12.57 8.88014 12.67C7.25766 12.86 5.91244 14.17 5.65572 15.74C5.5633 16.3 5.61464 16.86 5.5941 17.43C5.5941 17.59 5.62491 17.65 5.80975 17.65C7.21658 17.65 8.62342 17.65 10.0303 17.65ZM12.505 9.15C12.505 7.83 11.4063 6.75 10.0508 6.74C8.68503 6.74 7.57599 7.81 7.57599 9.14C7.57599 10.46 8.67476 11.54 10.0303 11.55C11.396 11.55 12.505 10.48 12.505 9.15Z" fill="white"/>
<path d="M4.53641 18.69C4.53641 17.85 4.53641 17.02 4.53641 16.18C4.53641 15.78 4.61856 15.39 4.74179 15.01C4.77259 14.91 4.76232 14.85 4.68017 14.78C4.22834 14.37 3.79705 13.95 3.34522 13.54C3.24253 13.44 3.21173 13.38 3.30415 13.25C3.60194 12.8 3.88947 12.33 4.18727 11.88C4.24888 11.78 4.24888 11.71 4.19754 11.6C4.12566 11.45 4.06404 11.3 4.00243 11.14C3.97162 11.04 3.91001 11 3.80732 10.97C3.2528 10.85 2.70855 10.72 2.15403 10.59C2.04108 10.56 2 10.53 2 10.4C2 9.46 2 8.52 2 7.58C2 7.44 2.05134 7.4 2.17457 7.37C2.71882 7.25 3.26307 7.12 3.80732 7C3.89974 6.98 3.95108 6.94 3.99216 6.85C4.05377 6.68 4.12566 6.51 4.20781 6.35C4.24888 6.27 4.23861 6.21 4.18727 6.13C3.8792 5.65 3.58141 5.17 3.27334 4.7C3.21173 4.61 3.22199 4.56 3.30415 4.49C4.00243 3.82 4.69044 3.15 5.37846 2.47C5.46061 2.39 5.51195 2.38 5.61464 2.44C6.09728 2.74 6.59018 3.02 7.07282 3.32C7.15497 3.37 7.21658 3.38 7.309 3.34C7.47331 3.26 7.63761 3.2 7.81218 3.14C7.91487 3.11 7.95594 3.05 7.97648 2.95C8.09971 2.41 8.2332 1.88 8.3667 1.34C8.38723 1.23 8.42831 1.2 8.55154 1.2C9.51681 1.2 10.4821 1.2 11.4474 1.2C11.5809 1.2 11.6219 1.24 11.6527 1.36C11.776 1.9 11.9095 2.43 12.043 2.97C12.0635 3.06 12.1046 3.11 12.197 3.15C12.3716 3.21 12.5461 3.28 12.7104 3.36C12.7926 3.4 12.8542 3.4 12.9363 3.35C13.4292 3.05 13.9222 2.76 14.4048 2.46C14.4972 2.4 14.5486 2.41 14.6204 2.48C15.3084 3.16 15.9965 3.83 16.6947 4.5C16.7769 4.58 16.7872 4.63 16.7256 4.73C16.4175 5.2 16.13 5.68 15.8219 6.15C15.7705 6.23 15.7603 6.29 15.8014 6.38C15.8835 6.54 15.9554 6.71 16.017 6.88C16.0478 6.97 16.0992 7 16.1813 7.02C16.7358 7.14 17.2801 7.27 17.8346 7.4C17.9475 7.43 18.0092 7.46 17.9989 7.6C17.9989 8.54 17.9989 9.49 17.9989 10.43C17.9989 10.54 17.9681 10.59 17.8551 10.61C17.3006 10.73 16.7564 10.86 16.2018 10.99C16.0889 11.01 16.0375 11.06 15.9965 11.17C15.9451 11.33 15.8835 11.48 15.8014 11.63C15.7397 11.74 15.7603 11.81 15.8219 11.91C16.1197 12.37 16.4072 12.84 16.705 13.3C16.7666 13.39 16.7564 13.44 16.6845 13.52C16.2532 13.96 15.8322 14.41 15.4009 14.85C15.329 14.92 15.3084 14.99 15.3393 15.09C15.4728 15.52 15.5344 15.95 15.5344 16.4C15.5344 17.17 15.5344 17.95 15.5344 18.72H4.53641V18.69ZM12.2483 11.84C12.2483 11.84 12.2689 11.86 12.2791 11.86C13.3368 12.24 14.1789 12.89 14.7847 13.82C14.8361 13.89 14.8669 13.87 14.908 13.82C15.062 13.66 15.2058 13.5 15.3598 13.35C15.4419 13.27 15.4317 13.22 15.3803 13.14C15.1133 12.72 14.8464 12.3 14.5794 11.88C14.5383 11.81 14.5177 11.76 14.5588 11.68C14.7642 11.2 14.9696 10.73 15.1647 10.25C15.1955 10.17 15.2468 10.13 15.3393 10.11C15.8219 10 16.3045 9.89 16.7872 9.78C16.9001 9.75 16.9412 9.71 16.9412 9.59C16.9412 9.2 16.9309 8.8 16.9412 8.41C16.9412 8.28 16.8899 8.24 16.7769 8.21C16.3045 8.1 15.8219 7.99 15.3495 7.88C15.2571 7.86 15.2058 7.82 15.1647 7.73C14.9696 7.26 14.7745 6.8 14.5691 6.33C14.528 6.24 14.5383 6.18 14.5896 6.1C14.8566 5.69 15.1133 5.27 15.3803 4.85C15.4317 4.76 15.4317 4.72 15.3598 4.65C15.062 4.36 14.7642 4.08 14.4664 3.78C14.3945 3.7 14.3432 3.7 14.2508 3.76C13.8297 4.02 13.3984 4.27 12.9671 4.53C12.885 4.58 12.8234 4.58 12.7412 4.55C12.2586 4.35 11.776 4.16 11.2933 3.96C11.2112 3.93 11.1701 3.88 11.1496 3.79C11.0366 3.32 10.9236 2.85 10.8107 2.38C10.7901 2.27 10.7491 2.22 10.6156 2.23C10.2151 2.24 9.80434 2.24 9.40385 2.23C9.27036 2.23 9.22928 2.27 9.19848 2.39C9.09579 2.86 8.97256 3.32 8.8596 3.78C8.83906 3.87 8.79799 3.93 8.70557 3.96C8.22293 4.15 7.75057 4.34 7.26793 4.54C7.17551 4.58 7.1139 4.57 7.03174 4.52C6.61072 4.26 6.17943 4.01 5.74814 3.75C5.66599 3.7 5.61464 3.69 5.54276 3.77C5.24496 4.07 4.94716 4.36 4.6391 4.65C4.55695 4.72 4.56722 4.77 4.61856 4.85C4.88555 5.26 5.14227 5.68 5.40926 6.1C5.46061 6.18 5.47088 6.25 5.4298 6.33C5.23469 6.78 5.02932 7.24 4.84448 7.7C4.79313 7.82 4.73152 7.87 4.60829 7.89C4.13592 7.99 3.66356 8.11 3.19119 8.21C3.07823 8.23 3.04742 8.28 3.04742 8.39C3.04742 8.79 3.05769 9.19 3.04742 9.59C3.04742 9.72 3.09877 9.75 3.21173 9.78C3.68409 9.89 4.16673 10 4.6391 10.11C4.74179 10.13 4.79313 10.18 4.83421 10.27C5.02932 10.73 5.21415 11.18 5.41953 11.64C5.47088 11.75 5.45034 11.82 5.38873 11.92C5.132 12.32 4.87528 12.73 4.61856 13.14C4.57749 13.2 4.53641 13.24 4.61856 13.31C4.83421 13.49 5.02932 13.69 5.24496 13.89C5.87136 12.92 6.73395 12.25 7.83272 11.86C6.12808 10.48 6.11782 8.19 7.4425 6.81C8.79799 5.41 11.0263 5.34 12.464 6.66C13.9427 8.02 13.994 10.45 12.2381 11.85L12.2483 11.84ZM10.0303 17.65C11.4576 17.65 12.8953 17.65 14.3226 17.65C14.4459 17.65 14.4972 17.63 14.4869 17.49C14.4767 17.13 14.4869 16.77 14.4869 16.41C14.4664 14.61 13.2547 13.1 11.4782 12.72C10.6258 12.54 9.74272 12.57 8.88014 12.67C7.25766 12.86 5.91244 14.17 5.65572 15.74C5.5633 16.3 5.61464 16.86 5.5941 17.43C5.5941 17.59 5.62491 17.65 5.80975 17.65C7.21658 17.65 8.62342 17.65 10.0303 17.65ZM12.505 9.15C12.505 7.83 11.4063 6.75 10.0508 6.74C8.68503 6.74 7.57599 7.81 7.57599 9.14C7.57599 10.46 8.67476 11.54 10.0303 11.55C11.396 11.55 12.505 10.48 12.505 9.15Z" stroke="white" stroke-width="0.2" mask="url(#path-1-outside-1_28_1457)"/>
</svg>
