<svg width="20" height="20" viewBox="0 0 20 20" fill="none" xmlns="http://www.w3.org/2000/svg">
<path d="M10.0256 16.3523C8.65987 16.3523 7.29159 16.1174 5.98676 15.6476C5.86416 15.6039 5.78271 15.4873 5.78271 15.357V13.2248C5.78271 12.2612 6.35369 11.4699 7.52907 10.8055C7.67653 10.7223 7.866 10.7738 7.94916 10.9221C8.03317 11.0704 7.98088 11.259 7.83256 11.3422C6.86894 11.8866 6.39998 12.5021 6.39998 13.224V15.1367C8.74989 15.9323 11.303 15.9331 13.6366 15.1367V13.2231C13.6366 12.5013 13.1676 11.8857 12.2032 11.3413C12.0549 11.2573 12.0026 11.0695 12.0866 10.9212C12.1706 10.7729 12.3575 10.7206 12.5075 10.8046C13.6829 11.4682 14.2539 12.2595 14.2539 13.224V15.3561C14.2539 15.4856 14.1724 15.6022 14.0507 15.6459C12.7561 16.1166 11.3913 16.3515 10.0256 16.3515V16.3523Z" fill="white" stroke="white" stroke-width="0.5"/>
<path d="M4.87586 15.2541C3.89595 15.2541 2.92803 15.0775 2.00042 14.7294C1.87954 14.6839 1.7998 14.5691 1.7998 14.4405V12.9067C1.7998 12.1806 2.23789 11.5736 3.10121 11.1029C3.25124 11.0215 3.43814 11.0772 3.51958 11.2264C3.60103 11.3764 3.54616 11.5633 3.39613 11.6448C2.73685 12.0048 2.41622 12.4172 2.41622 12.9067V14.2236C3.21352 14.4979 4.03912 14.6368 4.875 14.6368C5.04561 14.6368 5.18364 14.7748 5.18364 14.9454C5.18364 15.116 5.04561 15.2541 4.875 15.2541H4.87586Z" fill="white" stroke="white" stroke-width="0.5"/>
<path d="M15.1792 15.2541C15.0086 15.2541 14.8706 15.1161 14.8706 14.9455C14.8706 14.7749 15.0086 14.6368 15.1792 14.6368C16.0151 14.6368 16.8416 14.4979 17.638 14.2236V12.9068C17.638 12.4172 17.3182 12.004 16.659 11.6448C16.5089 11.5633 16.4541 11.3756 16.5355 11.2264C16.617 11.0764 16.8064 11.0224 16.9539 11.103C17.8172 11.5736 18.2553 12.1806 18.2553 12.9068V14.4405C18.2553 14.5691 18.1756 14.684 18.0547 14.7294C17.1271 15.0775 16.1592 15.2541 15.1792 15.2541Z" fill="white" stroke="white" stroke-width="0.5"/>
<path d="M10.0189 9.59639C8.57342 9.59639 7.33545 7.71972 7.33545 6.18426C7.33545 4.64881 8.53912 3.5 10.0189 3.5C11.4986 3.5 12.7211 4.70367 12.7211 6.1834C12.7211 7.66314 11.5157 9.59639 10.0189 9.59639ZM10.0189 4.11727C8.87948 4.11727 7.95272 5.04403 7.95272 6.1834C7.95272 7.40423 8.95492 8.97912 10.0189 8.97912C11.0828 8.97912 12.1039 7.41623 12.1039 6.1834C12.1039 5.04403 11.1685 4.11727 10.0189 4.11727Z" fill="white" stroke="white" stroke-width="0.5"/>
<path d="M4.93259 9.93246C3.80865 9.93246 2.90332 8.54617 2.90332 7.39908C2.90332 6.25199 3.81379 5.36981 4.93259 5.36981C6.05139 5.36981 6.96186 6.28028 6.96186 7.39908C6.96186 8.51788 6.05654 9.93246 4.93259 9.93246ZM4.93259 5.98708C4.15415 5.98708 3.52059 6.62064 3.52059 7.39908C3.52059 8.23583 4.20473 9.31605 4.93259 9.31605C5.66045 9.31605 6.34459 8.23668 6.34459 7.39908C6.34459 6.62064 5.71104 5.98708 4.93259 5.98708Z" fill="white" stroke="white" stroke-width="0.5"/>
<path d="M15.1236 9.93246C13.9997 9.93246 13.0952 8.54617 13.0952 7.39908C13.0952 6.25199 14.0057 5.36981 15.1236 5.36981C16.2416 5.36981 17.134 6.28028 17.134 7.39908C17.134 8.51788 16.2373 9.93246 15.1236 9.93246ZM15.1236 5.98708C14.3452 5.98708 13.7125 6.62064 13.7125 7.39908C13.7125 8.23583 14.3966 9.31605 15.1236 9.31605C15.8506 9.31605 16.5168 8.23668 16.5168 7.39908C16.5168 6.62064 15.8918 5.98708 15.1236 5.98708Z" fill="white" stroke="white" stroke-width="0.5"/>
</svg>
