<svg width="20" height="20" viewBox="0 0 20 20" fill="none" xmlns="http://www.w3.org/2000/svg">
<path d="M16.087 4.25H3.91304C3.01103 4.25 2.25 4.96895 2.25 5.89216V14.219C2.25 15.1422 3.01103 15.8611 3.91304 15.8611H16.087C16.989 15.8611 17.75 15.1422 17.75 14.219V5.89216C17.75 4.96895 16.989 4.25 16.087 4.25Z" stroke="white" stroke-width="1.5" stroke-miterlimit="10" stroke-linecap="round"/>
<path d="M14.4336 6.45001H12.1003C11.8655 6.45001 11.619 6.51211 11.4093 6.65191C11.2048 6.78822 10.9614 7.05889 10.9614 7.45927V8.49631C10.9614 8.89669 11.2048 9.16736 11.4093 9.30367C11.619 9.44347 11.8655 9.50557 12.1003 9.50557H14.4336C14.6685 9.50557 14.915 9.44347 15.1247 9.30367C15.3291 9.16736 15.5725 8.89669 15.5725 8.49631V7.45927C15.5725 7.05889 15.3291 6.78822 15.1247 6.65191C14.915 6.51211 14.6685 6.45001 14.4336 6.45001Z" stroke="white" stroke-width="1.5" stroke-miterlimit="10" stroke-linecap="round"/>
<path d="M4.52002 13.2H11.52" stroke="white" stroke-width="1.5" stroke-miterlimit="10" stroke-linecap="round"/>
<path d="M4.55566 11.2222H9.22233" stroke="white" stroke-width="1.5" stroke-miterlimit="10" stroke-linecap="round"/>
</svg>
