<svg width="12" height="12" viewBox="0 0 12 12" fill="none" xmlns="http://www.w3.org/2000/svg">
<path d="M1.51212 1.83404L5.52023 1.8288C6.13692 1.93895 6.15078 2.86323 5.54421 2.99998C4.33031 3.09215 2.98454 2.89995 1.786 3.0071C1.39073 3.04232 1.2109 3.24875 1.18055 3.63803V10.1593C1.20903 10.5767 1.38699 10.7858 1.8126 10.8195H8.36164C8.6314 10.7981 8.85919 10.6959 8.95061 10.425C9.05214 9.11217 8.95735 7.77651 8.99969 6.45584C9.13682 5.84852 10.0607 5.8635 10.1709 6.47982C10.1001 7.75628 10.2732 9.14926 10.1742 10.4122C10.1091 11.2417 9.40994 11.9247 8.58644 12H1.58781C0.748944 11.918 0.0820504 11.2519 0 10.4122L0.00449591 3.36115C0.108651 2.57212 0.723842 1.94569 1.51212 1.83404Z" fill="#94969C"/>
<path d="M10.7912 2.0793L10.7065 2.12126L5.12894 7.69919C4.58081 8.09445 3.91729 7.40133 4.3002 6.87044L9.87812 1.29289L9.92008 1.20822H7.60169C7.5912 1.20822 7.44284 1.12392 7.42073 1.10818C7.03184 0.825314 7.13936 0.168911 7.60806 0.0344079C8.8568 0.0688765 10.1224 -0.0236643 11.367 0.00593378C11.7256 0.0145509 11.9852 0.27344 11.9934 0.632364C12.0219 1.87698 11.9313 3.14221 11.965 4.39132C11.8308 4.85964 11.1741 4.96755 10.8912 4.57865C10.8751 4.55654 10.7912 4.40818 10.7912 4.39769V2.0793Z" fill="#94969C"/>
</svg>
